<svg width="26" height="26" viewBox="0 0 26 26" fill="none" xmlns="http://www.w3.org/2000/svg">
<path d="M6 11.8918L7.60324 8.04169C7.86422 7.41493 8.52919 7 9.27225 7H17.6653C18.4083 7 19.0733 7.41493 19.3343 8.04169L20.9375 11.8918M6 11.8918H20.9375M6 11.8918V18.1813M20.9375 11.8918V18.1813M20.9375 18.1813H6M20.9375 18.1813V19.5789H18.7934V18.1813M6 18.1813V19.5789H8.14414V18.1813" stroke="#666F7A" stroke-linecap="round" stroke-linejoin="round"/>
<path d="M8.35845 15.6476C8.79265 15.6476 9.14463 15.2956 9.14463 14.8614C9.14463 14.4272 8.79265 14.0752 8.35845 14.0752C7.92425 14.0752 7.57227 14.4272 7.57227 14.8614C7.57227 15.2956 7.92425 15.6476 8.35845 15.6476Z" stroke="#666F7A" stroke-linecap="round" stroke-linejoin="round"/>
<path d="M18.5792 15.6476C19.0134 15.6476 19.3653 15.2956 19.3653 14.8614C19.3653 14.4272 19.0134 14.0752 18.5792 14.0752C18.145 14.0752 17.793 14.4272 17.793 14.8614C17.793 15.2956 18.145 15.6476 18.5792 15.6476Z" stroke="#666F7A" stroke-linecap="round" stroke-linejoin="round"/>
</svg>
