<svg width="26" height="26" viewBox="0 0 26 26" fill="none" xmlns="http://www.w3.org/2000/svg">
<path d="M21 14.9948V11.4886C21 11.3016 20.8956 11.1302 20.7295 11.0444L13.1336 7.12005C12.988 7.04485 12.8149 7.04573 12.6701 7.1224L5.87378 10.7214C5.51151 10.9133 5.52134 11.4356 5.89057 11.6137L8.23232 12.7431M8.23232 12.7431L12.6867 14.8914C12.8224 14.9568 12.9804 14.9576 13.1168 14.8934L17.6869 12.7431M8.23232 12.7431V16.7091C8.23232 16.8321 8.27749 16.9519 8.3623 17.041C10.846 19.653 15.0732 19.653 17.5569 17.041C17.6417 16.9519 17.6869 16.8321 17.6869 16.7091V12.7431M17.6869 12.7431L19.6341 11.835" stroke="#666F7A" stroke-linecap="round" stroke-linejoin="round"/>
</svg>
