<svg width="18" height="18" viewBox="0 0 18 18" fill="none" xmlns="http://www.w3.org/2000/svg">
<path d="M5.83181 13.5829L4.65954 12.4145M4.65954 12.4145L4.62902 12.3841C3.31004 11.0694 2.56904 9.2863 2.56904 7.42707V6.84732C2.56904 6.41546 2.2178 6.06537 1.78452 6.06537C1.35124 6.06537 1 6.41546 1 6.84732V8.28023C1 11.0223 2.03979 13.663 3.91096 15.6731L5.14616 17M4.65954 12.4145L4.06908 11.7312L4.00877 11.6596C3.75658 11.3603 3.77583 10.9186 4.05309 10.6422C4.32079 10.3754 4.74522 10.3471 5.0462 10.576L6.75755 12.157C8.17074 13.2318 9.00001 14.6226 9.00001 16.3944M9.00001 17V16.3944M9.00001 16.3944C9.00001 14.6226 9.82926 13.2318 11.2425 12.157L12.9538 10.576C13.2548 10.3471 13.6792 10.3754 13.9469 10.6422C14.2242 10.9186 14.2434 11.3603 13.9912 11.6596L13.9309 11.7312L13.3405 12.4145M12.1682 13.5829L13.3405 12.4145M13.3405 12.4145L13.371 12.3841C14.69 11.0694 15.431 9.2863 15.431 7.42707V6.84732C15.431 6.41546 15.7822 6.06537 16.2155 6.06537C16.6488 6.06537 17 6.41546 17 6.84732V8.28023C17 11.0223 15.9602 13.663 14.089 15.6731L12.8538 17" stroke="#666F7A"/>
<path d="M8.9906 3.15052L8.91532 3.01992C8.30203 1.9558 6.88945 1.67245 5.91092 2.41726C3.17848 4.91207 7.10966 7.98646 8.9906 9.31287C10.9804 7.8659 14.8108 4.83169 12.0703 2.41726C11.0918 1.67245 9.67918 1.9558 9.06588 3.01992L8.9906 3.15052Z" stroke="#666F7A" stroke-linejoin="round"/>
</svg>
