<svg width="26" height="26" viewBox="0 0 26 26" fill="none" xmlns="http://www.w3.org/2000/svg">
<path d="M17.5745 18.33L18.9549 18.317C19.2554 18.3157 19.5431 18.1957 19.7556 17.9833C19.9681 17.7708 20.088 17.483 20.0894 17.1826V8.13445C20.088 7.83399 19.9681 7.54622 19.7556 7.33376C19.5431 7.1213 19.2554 7.00134 18.9549 7L17.5745 7.01297M7.51489 7L6.06883 7.01297C5.44482 7.01297 5 7.52381 5 8.14742V17.1959C5 17.8195 5.44482 18.33 6.06883 18.33L7.51489 18.317M17.5745 10.1436V15.1734M15.0596 8.88617V16.4308M12.5447 9.51489V15.8021M10.0298 8.88617V16.4308M7.51489 10.1436V15.1734" stroke="#666F7A" stroke-linecap="round" stroke-linejoin="round"/>
</svg>
