<svg width="26" height="27" viewBox="0 0 26 27" fill="none" xmlns="http://www.w3.org/2000/svg">
<g clip-path="url(#clip0_1834_4180)">
<path d="M6.21378 20.0499L5.14874 13.2708C5.11165 13.0347 5.29415 12.8213 5.53312 12.8213H22.7967C23.0954 12.8213 23.2827 13.1439 23.1346 13.4033L19.7512 19.3286" stroke="white"/>
<path d="M7.5166 12.7212V8.24749C7.5166 8.0326 7.69081 7.8584 7.9057 7.8584H12.7242C12.9391 7.8584 13.1133 8.0326 13.1133 8.24749L13.1133 12.3883" stroke="white"/>
<path d="M13.1133 10.0464H18.5893C18.8042 10.0464 18.9784 10.2206 18.9784 10.4355V12.721" stroke="white"/>
<path d="M0 18.7017C1.66284 19.9375 5.68828 21.5835 8.9385 18.7213C9.1491 18.5358 9.47965 18.56 9.67676 18.7598C10.8449 19.9436 13.5055 21.1013 17.2505 18.5982C17.4519 18.4636 17.7255 18.5023 17.9017 18.6685C19.032 19.7346 21.8715 21.0746 25.0762 19.4468" stroke="white"/>
<path d="M9.52837 16.4356C9.96257 16.4356 10.3146 16.0837 10.3146 15.6495C10.3146 15.2153 9.96257 14.8633 9.52837 14.8633C9.09417 14.8633 8.74219 15.2153 8.74219 15.6495C8.74219 16.0837 9.09417 16.4356 9.52837 16.4356Z" stroke="white" stroke-linecap="round" stroke-linejoin="round"/>
</g>
<defs>
<clipPath id="clip0_1834_4180">
<rect y="0.0834961" width="26" height="26" rx="13" fill="white"/>
</clipPath>
</defs>
</svg>
