<svg xmlns="http://www.w3.org/2000/svg" xmlns:xlink="http://www.w3.org/1999/xlink" preserveAspectRatio="xMidYMid" width="41" height="33" viewBox="0 0 41 33">
  <defs>
    <style>
      .cls-1 {
        fill: #808a95;
        fill-rule: evenodd;
      }
    </style>
  </defs>
  <path d="M38.500,19.000 L2.500,19.000 C1.119,19.000 -0.000,17.881 -0.000,16.500 C-0.000,15.119 1.119,14.000 2.500,14.000 L38.500,14.000 C39.881,14.000 41.000,15.119 41.000,16.500 C41.000,17.881 39.881,19.000 38.500,19.000 ZM38.500,5.000 L2.500,5.000 C1.119,5.000 -0.000,3.881 -0.000,2.500 C-0.000,1.119 1.119,0.000 2.500,0.000 L38.500,0.000 C39.881,0.000 41.000,1.119 41.000,2.500 C41.000,3.881 39.881,5.000 38.500,5.000 ZM2.500,28.000 L38.500,28.000 C39.881,28.000 41.000,29.119 41.000,30.500 C41.000,31.881 39.881,33.000 38.500,33.000 L2.500,33.000 C1.119,33.000 -0.000,31.881 -0.000,30.500 C-0.000,29.119 1.119,28.000 2.500,28.000 Z" class="cls-1"/>
</svg>
