<svg xmlns="http://www.w3.org/2000/svg" xmlns:xlink="http://www.w3.org/1999/xlink" preserveAspectRatio="xMidYMid" width="31" height="31" viewBox="0 0 31 31">
  <defs>
    <style>
      .cls-1 {
        fill: #808a95;
        fill-rule: evenodd;
      }
    </style>
  </defs>
  <path d="M19.066,15.469 L30.232,26.635 C31.225,27.629 31.225,29.239 30.232,30.233 C29.239,31.226 27.628,31.226 26.635,30.233 L15.469,19.067 L4.540,29.996 C3.564,30.972 1.981,30.972 1.004,29.996 C0.028,29.019 0.028,27.436 1.004,26.460 L11.933,15.531 L0.735,4.333 C-0.258,3.340 -0.258,1.729 0.735,0.736 C1.729,-0.258 3.339,-0.258 4.332,0.736 L15.531,11.934 L26.460,1.004 C27.436,0.028 29.019,0.028 29.996,1.004 C30.972,1.981 30.972,3.564 29.996,4.540 L19.066,15.469 Z" class="cls-1"/>
</svg>
