<svg width="16" height="11" viewBox="0 0 16 11" fill="none" xmlns="http://www.w3.org/2000/svg">
<g clip-path="url(#clip0_619_1078)">
<path fill-rule="evenodd" clip-rule="evenodd" d="M6.8543 6.33485L2.21351 9.8H13.8151L9.40374 6.3407L8.55536 6.99041C8.30349 7.1833 7.95339 7.18269 7.7022 6.98892L6.8543 6.33485ZM10.3703 5.57373L14.8 9.04736V1.98091L10.3703 5.57373ZM13.8578 1.2H2.16971L8.13086 5.80404L9.03663 5.11038L13.8578 1.2ZM5.86824 5.57351L1.2 9.05915V1.96725L5.86824 5.57351ZM0.5 0C0.223858 0 0 0.223858 0 0.5V10.5C0 10.7761 0.223858 11 0.5 11H15.5C15.7761 11 16 10.7761 16 10.5V0.5C16 0.223858 15.7761 0 15.5 0H0.5Z" fill="#515461"/>
</g>
<defs>
<clipPath id="clip0_619_1078">
<rect width="16" height="11" fill="white"/>
</clipPath>
</defs>
</svg>
