<svg width="20" height="16" viewBox="0 0 20 16" fill="none" xmlns="http://www.w3.org/2000/svg">
    <path d="M17.5774 8.79786H6.55464L5.11524 2.81299H18.9336L17.5774 8.79786Z" stroke="#515461" stroke-width="1.5" stroke-miterlimit="10" stroke-linecap="round" stroke-linejoin="round"/>
    <path d="M5.75977 5.54238L4.68985 1.05567H1.35651" stroke="#515461" stroke-width="1.5" stroke-miterlimit="10" stroke-linecap="round" stroke-linejoin="round"/>
    <path d="M16.2061 11.5369C15.7834 11.3618 15.3084 11.3618 14.8857 11.5369C14.463 11.712 14.1271 12.0479 13.952 12.4706C13.7769 12.8934 13.7769 13.3683 13.952 13.7911C14.1271 14.2138 14.463 14.5497 14.8857 14.7248C15.3084 14.8999 15.7834 14.8999 16.2061 14.7248C16.6289 14.5497 16.9647 14.2138 17.1398 13.7911C17.3149 13.3683 17.3149 12.8934 17.1398 12.4706C16.9647 12.0479 16.6289 11.712 16.2061 11.5369Z" stroke="#515461" stroke-width="1.5"/>
    <path d="M9.26522 11.5369C8.84249 11.3618 8.36751 11.3618 7.94478 11.5369C7.52204 11.712 7.18618 12.0479 7.01108 12.4706C6.83598 12.8934 6.83598 13.3683 7.01108 13.7911C7.18618 14.2138 7.52204 14.5497 7.94478 14.7248C8.36751 14.8999 8.84249 14.8999 9.26522 14.7248C9.68795 14.5497 10.0238 14.2138 10.1989 13.7911C10.374 13.3683 10.374 12.8934 10.1989 12.4706C10.0238 12.0479 9.68795 11.712 9.26522 11.5369Z" stroke="#515461" stroke-width="1.5"/>
</svg>
