<svg width="26" height="26" viewBox="0 0 26 26" fill="none" xmlns="http://www.w3.org/2000/svg">
<path d="M13.5 21.4679C12.9722 21.827 11.3444 22.3619 10.5 21.5L4.17982 16.2307C4.06587 16.1357 4 15.9952 4 15.8468C4 13.7881 4 9.90549 4 8.49829C4 8.22215 4.22386 8 4.5 8H10.6733C10.7944 8 10.9113 8.04394 11.0025 8.12366L12.4444 9.38498M13.5 21.4679L9.5 18M13.5 21.4679C14.5556 22.5453 15.2944 21.7911 16.1389 20.9292M16.1389 20.9292L11.5 16.5M16.1389 20.9292C17.1944 22.0066 18.7778 20.3905 18.25 19.8517M12.9722 15.0033L18.25 19.8517M18.25 19.8517C18.25 19.8517 19.8333 18.7743 18.7778 17.6969M18.7778 17.6969C18.3763 17.2871 15.2387 14.2468 13.7214 12.5597C13.5857 12.4087 13.3738 12.3512 13.1881 12.4331C11.5889 13.1378 8.85432 15.2513 7.32969 13.5862C7.22079 13.4673 7.19237 13.294 7.27873 13.1578C7.88711 12.1983 10.3296 10.8267 12.4444 9.38498M18.7778 17.6969L21.7242 16.2191C21.8933 16.1343 22 15.9613 22 15.7721V8.5C22 8.22386 21.7761 8 21.5 8H14.6996C14.6055 8 14.5133 8.02646 14.4338 8.07673C13.8698 8.43314 13.1768 8.88571 12.4444 9.38498" stroke="#666F7A" stroke-linecap="round" stroke-linejoin="round"/>
</svg>
