<svg width="26" height="26" viewBox="0 0 26 26" fill="none" xmlns="http://www.w3.org/2000/svg">
<path d="M14.1118 5.24044C13.3378 4.91985 12.4681 4.91985 11.6941 5.24044C10.9201 5.56103 10.3052 6.17603 9.98459 6.94995C9.66399 7.72405 9.66399 8.59354 9.98459 9.36764C10.3052 10.1416 10.9201 10.7566 11.6941 11.0771C12.4681 11.3977 13.3378 11.3977 14.1118 11.0771C14.8858 10.7566 15.5007 10.1416 15.8213 9.36764C16.1419 8.59354 16.1419 7.72405 15.8213 6.94995C15.5007 6.17603 14.8858 5.56103 14.1118 5.24044Z" stroke="white"/>
<path d="M22 14H14.9734H10.5551C7.1422 14 7.00005 15.9108 7 17.3837V20.5C7 20.7761 7.22386 21 7.5 21H16.592C16.8681 21 17.092 20.7761 17.092 20.5V17.2383" stroke="white" stroke-linecap="round" stroke-linejoin="round"/>
</svg>
