<svg width="26" height="26" viewBox="0 0 26 26" fill="none" xmlns="http://www.w3.org/2000/svg">
<path fill-rule="evenodd" clip-rule="evenodd" d="M9.48588 6.21718C9.2453 6.47409 9.05159 6.79711 8.93712 7.02877L8.04059 6.58579C8.18142 6.30077 8.4263 5.88569 8.75595 5.53366C9.07518 5.19276 9.54989 4.83108 10.1478 4.83105C10.9979 4.83102 11.4083 5.38649 11.6728 5.74453C11.6796 5.75369 11.6863 5.76273 11.6929 5.77162C11.9765 6.15462 12.1134 6.30728 12.431 6.30728C12.6473 6.30728 12.7884 6.25987 12.8928 6.20017C13.003 6.13709 13.1006 6.04414 13.2093 5.91136C13.2642 5.84419 13.3169 5.77337 13.3774 5.69211L13.3781 5.6911C13.4359 5.61347 13.5017 5.52501 13.5722 5.43972C13.7143 5.26798 13.9016 5.07615 14.1649 4.94664L14.6063 5.84399C14.5261 5.8834 14.4459 5.95252 14.3427 6.0772C14.291 6.13975 14.24 6.20797 14.1797 6.28896L14.1743 6.29629C14.1178 6.37219 14.0531 6.45917 13.9832 6.54461C13.8376 6.7226 13.6496 6.91929 13.3893 7.06818C13.1232 7.22043 12.8088 7.30728 12.431 7.30728C11.5839 7.30728 11.1743 6.75267 10.9106 6.39562C10.9034 6.38582 10.8962 6.37617 10.8892 6.36668C10.6065 5.98489 10.4683 5.83104 10.1479 5.83105C9.96399 5.83106 9.73686 5.94915 9.48588 6.21718ZM7.07495 8.99593V20.169H18.9258V13.3703L14.0619 17.0456V13.409L9.48882 17.0844V8.99593H7.07495ZM6.07495 8.69593C6.07495 8.30933 6.38835 7.99593 6.77495 7.99593H9.78882C10.1754 7.99593 10.4888 8.30933 10.4888 8.69593V14.9978L13.9234 12.2374C14.3815 11.8693 15.0619 12.1954 15.0619 12.7831V15.0366L18.8038 12.2091C19.2649 11.8606 19.9258 12.1895 19.9258 12.7675V20.469C19.9258 20.8556 19.6124 21.169 19.2258 21.169H6.77495C6.38835 21.169 6.07495 20.8556 6.07495 20.469V8.69593Z" fill="#666F7A"/>
</svg>
