<svg width="26" height="26" viewBox="0 0 26 26" fill="none" xmlns="http://www.w3.org/2000/svg">
<path d="M17.2917 7H19.4583C19.602 7 19.7398 7.0559 19.8414 7.15541C19.9429 7.25492 20 7.38989 20 7.53061V8.65816C20 9.06275 19.8359 9.45077 19.5439 9.73686C19.2518 10.023 18.8557 10.1837 18.4427 10.1837H17.2917M7 18.1429H18.375M8.08333 7H17.2917V13.3673C17.2917 13.7158 17.2216 14.0607 17.0855 14.3826C16.9494 14.7045 16.7499 14.997 16.4984 15.2433C16.2469 15.4897 15.9484 15.6851 15.6198 15.8185C15.2912 15.9518 14.939 16.0204 14.5833 16.0204H10.7917C10.0734 16.0204 9.3845 15.7409 8.87659 15.2433C8.36867 14.7458 8.08333 14.071 8.08333 13.3673V7Z" stroke="#666F7A" stroke-linecap="round" stroke-linejoin="round"/>
</svg>
