<svg width="26" height="26" viewBox="0 0 26 26" fill="none" xmlns="http://www.w3.org/2000/svg">
<path fill-rule="evenodd" clip-rule="evenodd" d="M11.2464 4.12096C4.92713 5.48335 1.96496 12.7013 5.53673 18.0339C9.37528 23.7649 17.9376 23.1772 21.0561 16.9687C23.4821 12.1385 21.0429 6.19723 15.8998 4.40908C14.7877 4.0224 12.3916 3.87407 11.2464 4.12096ZM14.1635 5.28439C20.389 6.22346 22.9234 13.8563 18.5179 18.3985C14.1504 22.9016 6.52143 20.6282 5.33606 14.4704C4.31973 9.19078 8.84464 4.48211 14.1635 5.28439ZM12.5076 7.26065L12.3134 7.42309V8.29589C12.3134 9.15904 12.3118 9.1687 12.1714 9.16933C11.3564 9.17284 10.5127 10.1653 10.5184 11.1137C10.5249 12.1776 10.7763 12.4516 12.9357 13.7481C14.743 14.8334 14.7747 14.8634 14.775 15.4941C14.7755 16.2504 14.5469 16.3806 13.2142 16.3827C11.8142 16.3848 11.7004 16.3072 11.6693 15.3277C11.6467 14.6214 11.5138 14.439 11.0214 14.439C10.5208 14.439 10.3986 14.673 10.4326 15.5661C10.4771 16.737 10.941 17.3768 11.9587 17.6708L12.3134 17.7733V18.4618C12.3134 19.2999 12.4088 19.4584 12.9131 19.4584C13.4277 19.4584 13.5128 19.3075 13.5128 18.3946V17.6389H13.7251C15.172 17.6389 16.1023 16.7004 16.0231 15.3204C15.9626 14.2651 15.626 13.898 13.5759 12.651C12.7947 12.1759 12.079 11.7074 11.9854 11.6101C11.6654 11.2772 11.6746 10.6916 12.005 10.3633L12.1969 10.1726H13.098C14.3083 10.1726 14.6211 10.3689 14.7185 11.1898C14.8419 12.2301 15.9489 12.123 15.938 11.0718C15.9268 9.99746 15.0575 9.09303 13.9333 8.98612L13.5444 8.9491L13.5128 8.17486C13.4703 7.13347 13.082 6.78029 12.5076 7.26065Z" fill="#666F7A"/>
</svg>
