<svg width="239" height="36" viewBox="0 0 239 36" fill="none" xmlns="http://www.w3.org/2000/svg">
<path d="M38.8759 1.51318H42.7752C42.898 1.51318 42.9901 1.57459 42.9901 1.72811V5.66207C42.9901 5.78488 42.898 5.87699 42.7752 5.87699H38.8759C38.7531 5.87699 38.661 5.78488 38.661 5.66207V1.72811C38.661 1.60529 38.7531 1.51318 38.8759 1.51318Z" fill="white"/>
<path d="M55.1121 15.4392C54.1634 15.341 53.2802 15.2495 52.5986 15.1132C51.3091 14.8675 50.9099 14.3763 50.9099 13.6087C50.9099 12.442 51.9845 11.6437 54.0417 11.6437C56.1602 11.6437 58.0638 12.4113 59.4761 13.6087C59.5682 13.7008 59.6911 13.7008 59.7832 13.578L62.0859 10.8761C62.178 10.784 62.1781 10.6612 62.0552 10.5691C60.8885 9.52515 58.555 8.0514 54.5636 8.0514C50.0809 8.0514 47.072 10.1699 47.072 13.9157C47.072 16.6483 48.5458 17.9379 50.5108 18.6133C51.8127 19.0473 53.1031 19.1566 54.3462 19.2619C55.1259 19.328 55.887 19.3924 56.6207 19.5344C58.0638 19.7801 58.5243 20.3634 58.5243 21.2845C58.5243 22.5434 57.3883 23.3109 55.147 23.3109C52.5372 23.3109 50.5415 22.4819 48.9756 20.9775C48.8835 20.8854 48.73 20.8547 48.6379 20.9775L46.3965 23.6794C46.3911 23.6958 46.3846 23.7122 46.3782 23.7285C46.3488 23.8034 46.3209 23.8745 46.3965 23.925C47.5326 25.0917 49.9581 26.8725 54.7785 26.8725C60.3665 26.8725 62.5772 24.1706 62.5772 20.9161C62.4544 17.4773 60.1209 16.2185 58.0945 15.8193C57.1299 15.6482 56.0865 15.5401 55.1121 15.4392Z" fill="white"/>
<path d="M42.701 8.44311H38.9878C38.865 8.44311 38.7729 8.53522 38.7729 8.65803L38.7625 26.2282C38.7625 26.351 38.8546 26.4431 38.9774 26.4431H42.6906C42.8134 26.4431 42.9056 26.351 42.9056 26.2282L42.9159 8.65803C42.9159 8.53522 42.8545 8.44311 42.701 8.44311Z" fill="white"/>
<path fill-rule="evenodd" clip-rule="evenodd" d="M76.1821 7.99095C73.6337 7.99095 71.6994 8.85065 70.3792 10.263V8.63487C70.3792 8.51206 70.2871 8.41996 70.1643 8.41996H66.6641C66.5413 8.41996 66.4492 8.51206 66.4492 8.63487V33.8431C66.4492 33.9659 66.5413 34.0581 66.6641 34.0581H70.3485C70.4713 34.0581 70.5634 33.9659 70.5634 33.8431V24.7243C71.8837 26.0138 73.7258 26.7507 76.2128 26.7507C81.5859 26.7507 85.1474 22.6364 85.1474 17.3248C85.1167 12.1359 81.5859 7.99095 76.1821 7.99095ZM75.5066 22.9435C72.0065 22.9435 70.2257 20.4565 70.2257 17.3862C70.2257 14.3465 72.0065 11.8903 75.5066 11.8903C78.7919 11.8903 80.7569 14.3772 80.7569 17.3862C80.7569 20.4565 78.7919 22.9435 75.5066 22.9435Z" fill="white"/>
<path d="M97.6048 8.0514C98.4644 8.0514 99.2934 8.23561 99.9075 8.45054C100.03 8.48124 100.03 8.57335 100.03 8.75757L99.0171 12.5341C98.9864 12.6569 98.8943 12.6876 98.7715 12.6569C98.1267 12.442 97.4512 12.3192 96.8986 12.3192C94.2888 12.3192 92.7229 14.4684 92.7229 16.9554V26.2277C92.7229 26.3506 92.6308 26.4427 92.508 26.4427H88.8236C88.7008 26.4427 88.6087 26.3506 88.6087 26.2277V8.66299C88.6087 8.54018 88.7008 8.44808 88.8236 8.44808H92.3238C92.4466 8.44808 92.5387 8.54018 92.5387 8.66299V10.8761C93.8589 8.69617 95.8854 8.0514 97.6048 8.0514Z" fill="white"/>
<path fill-rule="evenodd" clip-rule="evenodd" d="M147.902 8.46115H144.401C144.279 8.46115 144.186 8.55325 144.186 8.67607V10.2769C142.835 8.86453 140.932 8.00483 138.383 8.00483C133.01 8.00483 129.449 12.3062 129.449 17.5565C129.449 22.8374 133.01 26.9824 138.383 26.9824C140.84 26.9824 142.713 26.2148 144.033 24.9559V26.6753C144.033 29.8378 141.607 31.0659 139.397 31.0659C137.309 31.0659 135.375 30.0527 134.331 28.0263C134.3 27.9035 134.116 27.8421 134.024 27.9035L130.585 29.4693C130.493 29.5 130.462 29.6536 130.493 29.715C131.445 31.9563 134.054 34.7503 139.397 34.7503C145.169 34.7503 148.147 31.158 148.147 26.6753V8.67607C148.116 8.55325 148.024 8.46115 147.902 8.46115ZM139.059 23.1445C135.774 23.1445 133.809 20.6575 133.809 17.5872C133.809 14.5475 135.774 11.9042 139.059 11.9042C142.559 11.9042 144.34 14.5782 144.34 17.5872C144.34 20.6575 142.559 23.1445 139.059 23.1445Z" fill="white"/>
<path d="M102.67 8.48377H106.354C106.477 8.48377 106.569 8.57587 106.569 8.69869V26.2792C106.569 26.402 106.477 26.4941 106.354 26.4941H102.67C102.547 26.4941 102.455 26.402 102.455 26.2792V8.69869C102.455 8.57587 102.547 8.48377 102.67 8.48377Z" fill="white"/>
<path d="M119.991 8.11021C117.729 8.11021 115.92 8.83021 114.623 10.0902V8.68545C114.623 8.56545 114.532 8.47545 114.412 8.47545H110.974C110.853 8.47545 110.763 8.56545 110.763 8.68545V26.2792C110.763 26.3992 110.853 26.4892 110.974 26.4892H114.593C114.713 26.4892 114.804 26.3992 114.804 26.2792V16.4091C114.804 14.0391 116.07 11.8902 118.694 11.8902C120.896 11.8902 122.373 13.4691 122.373 16.1091V26.2792C122.373 26.3992 122.464 26.4892 122.585 26.4892H126.204C126.324 26.4892 126.415 26.3992 126.415 26.2792V15.1191C126.384 11.4591 124.756 8.11021 119.991 8.11021Z" fill="white"/>
<path d="M102.589 1.52491H106.473C106.596 1.52491 106.688 1.58631 106.688 1.73983V5.67379C106.688 5.7966 106.596 5.88871 106.473 5.88871H102.589C102.466 5.88871 102.374 5.7966 102.374 5.67379V1.73983C102.374 1.61702 102.466 1.52491 102.589 1.52491Z" fill="white"/>
<path d="M13.1005 9.55414H13.1304H16.2712H16.3011C16.8396 9.55414 17.2284 9.16527 17.2284 8.62685V1.89653C17.2284 1.3581 16.8396 0.969238 16.3011 0.969238H16.2712H13.1304H13.1005C12.5621 0.969238 12.1732 1.3581 12.1732 1.89653V8.62685C12.1433 9.19519 12.5322 9.55414 13.1005 9.55414Z" fill="#31D073"/>
<path d="M8.88217 13.1432L8.91208 13.1133L10.8564 10.6605L10.8863 10.6306C11.2153 10.2118 11.1555 9.67336 10.7367 9.31441L5.47214 5.12666C5.05337 4.79762 4.51494 4.85745 4.15599 5.27622L4.12608 5.30613L2.18177 7.75897L2.15185 7.78887C1.82282 8.20765 1.88264 8.74608 2.30142 9.10503L7.56602 13.2928C8.01471 13.6218 8.55313 13.562 8.88217 13.1432Z" fill="#31D073"/>
<path d="M9.06157 18.6473V18.6174L8.37358 15.5663V15.5364C8.25393 14.9979 7.80524 14.7287 7.26682 14.8484L0.715972 16.344C0.177546 16.4637 -0.0916627 16.9123 0.0279874 17.4508V17.4807L0.715972 20.5318V20.5617C0.835622 21.1001 1.28431 21.3693 1.82274 21.2497L8.37358 19.754C8.912 19.6344 9.18122 19.1857 9.06157 18.6473Z" fill="#31D073"/>
<path d="M13.4896 21.9379L13.4597 21.908L10.6479 20.5619L10.618 20.532C10.1095 20.2927 9.60095 20.4722 9.39156 20.9807L6.49004 27.023C6.25074 27.5315 6.43022 28.04 6.93873 28.2494L6.96865 28.2793L9.78042 29.6254L9.81034 29.6553C10.3188 29.8946 10.8274 29.7151 11.0367 29.2066L13.9383 23.1643C14.1477 22.6857 13.9682 22.1772 13.4896 21.9379Z" fill="#31D073"/>
<path d="M18.8131 20.5628L18.7832 20.5927L15.9714 21.9387L15.9415 21.9687C15.433 22.208 15.2834 22.7165 15.4928 23.225L18.4242 29.2673C18.6635 29.7758 19.172 29.9254 19.6806 29.716L19.7105 29.6861L22.5222 28.34L22.5522 28.3101C23.0607 28.0708 23.2102 27.5623 23.0008 27.0538L20.0694 21.0114C19.8002 20.5029 19.2917 20.3235 18.8131 20.5628Z" fill="#31D073"/>
<path d="M21.0245 15.5071V15.537L20.3365 18.588V18.618C20.2168 19.1564 20.4861 19.6051 21.0245 19.7247L27.5753 21.2204C28.1138 21.34 28.5624 21.0708 28.6821 20.5324V20.5025L29.3701 17.4514V17.4215C29.4897 16.883 29.2205 16.4344 28.6821 16.3147L22.1312 14.8191C21.6227 14.6994 21.174 14.9686 21.0245 15.5071Z" fill="#31D073"/>
<path d="M18.4839 10.6306L18.5138 10.6605L20.4581 13.1133L20.488 13.1432C20.8171 13.562 21.3555 13.6218 21.8042 13.2928L27.0688 9.10503C27.4876 8.77599 27.5474 8.23756 27.2184 7.78887L27.1884 7.75897L25.2441 5.30613L25.2142 5.27622C24.8852 4.85745 24.3468 4.79762 23.8981 5.12666L18.6335 9.31441C18.2147 9.67336 18.1549 10.1819 18.4839 10.6306Z" fill="#31D073"/>
<path fill-rule="evenodd" clip-rule="evenodd" d="M158.397 -0.000488281V26.3072H161.499V-0.000488281H158.397ZM201.815 26.3227H205.056V8.30583H201.815V11.0746C201.161 10.1198 200.244 9.34078 199.063 8.73771C197.857 8.1095 196.563 7.7954 195.181 7.7954C190.206 7.7954 186.087 11.5072 186.087 17.3058C186.087 23.1045 189.858 26.8457 195.181 26.8457C196.563 26.8457 197.857 26.5441 199.063 25.9411C200.244 25.3128 201.161 24.5213 201.815 23.5664V26.3227ZM195.671 23.868C191.894 23.868 189.133 20.9611 189.133 17.3058C189.133 13.6506 191.894 10.7731 195.671 10.7731C199.448 10.7731 201.949 13.6506 201.949 17.3058C201.949 20.961 199.448 23.868 195.671 23.868ZM174.702 26.7606C171.925 26.7606 169.667 25.867 167.928 24.0797C166.189 22.2925 165.319 20.0464 165.319 17.3414C165.319 14.6605 166.201 12.4264 167.964 10.6392C169.727 8.8278 171.985 7.92211 174.739 7.92211C177.178 7.92211 179.219 8.74327 180.861 10.3856C182.528 12.0038 183.361 14.2137 183.361 17.0153C183.361 17.3776 183.349 17.6916 183.325 17.9572H168.471C168.52 19.6479 169.123 21.0608 170.283 22.1959C171.466 23.331 172.951 23.8986 174.739 23.8986C177.275 23.8986 179.158 22.848 180.39 20.7468L182.854 22.4495C181.091 25.3236 178.374 26.7606 174.702 26.7606ZM168.689 15.4213H180.173C179.931 13.9722 179.291 12.8249 178.253 11.9796C177.238 11.1102 176.031 10.6754 174.63 10.6754C173.205 10.6754 171.925 11.1102 170.79 11.9796C169.679 12.8249 168.979 13.9722 168.689 15.4213ZM209.628 26.3071V8.30709H212.724V11.7991C213.06 10.6951 213.708 9.80709 214.668 9.13509C215.652 8.46309 216.684 8.12709 217.764 8.12709C218.292 8.12709 218.76 8.17509 219.168 8.27109V11.4751C218.736 11.2831 218.172 11.1871 217.476 11.1871C216.228 11.1871 215.124 11.7271 214.164 12.8071C213.204 13.8871 212.724 15.4111 212.724 17.3791V26.3071H209.628ZM222.093 8.30717V26.3072H225.189V17.3792C225.189 15.3392 225.681 13.7312 226.665 12.5552C227.673 11.3792 228.921 10.7912 230.409 10.7912C231.705 10.7912 232.737 11.2352 233.505 12.1232C234.273 12.9872 234.552 14.1752 234.552 15.6872V26.3072H237.612V15.2192C237.612 13.0112 237.093 11.2472 235.845 9.92717C234.597 8.60717 232.953 7.94717 230.913 7.94717C228.321 7.94717 226.413 8.99117 225.189 11.0792V8.30717H222.093Z" fill="#31D073"/>
</svg>
