<svg width="20" height="16" viewBox="0 0 20 16" fill="none" xmlns="http://www.w3.org/2000/svg">
<path fill-rule="evenodd" clip-rule="evenodd" d="M0.75 0.476562C0.335786 0.476562 0 0.812349 0 1.22656C0 1.64078 0.335786 1.97656 0.75 1.97656H3.49116L4.42372 5.88724C4.43425 5.93143 4.4485 5.97375 4.46604 6.01398L5.21898 9.14462C5.30004 9.48167 5.60153 9.71924 5.94819 9.71924H16.9709C17.3213 9.71924 17.625 9.47669 17.7024 9.135L19.0586 3.15013C19.109 2.92773 19.0555 2.69448 18.9132 2.5163C18.7708 2.33812 18.5552 2.23438 18.3271 2.23438H5.0947L4.81288 1.05259C4.73235 0.714865 4.43054 0.476562 4.08334 0.476562H0.75ZM6.5392 8.21924L5.46056 3.73438H17.3882L16.3719 8.21924H6.5392Z" fill="#151824"/>
<path d="M15.5993 11.7095C15.1766 11.5344 14.7016 11.5344 14.2789 11.7095C13.8562 11.8846 13.5203 12.2205 13.3452 12.6432C13.1701 13.066 13.1701 13.5408 13.3452 13.9636C13.5203 14.3863 13.8562 14.7223 14.2789 14.8974C14.7016 15.0725 15.1766 15.0725 15.5993 14.8974C16.0221 14.7223 16.3579 14.3863 16.533 13.9636C16.7081 13.5408 16.7081 13.066 16.533 12.6432C16.3579 12.2205 16.0221 11.8846 15.5993 11.7095Z" stroke="#151824" stroke-width="1.5"/>
<path d="M8.6589 11.7095C8.23617 11.5344 7.76119 11.5344 7.33846 11.7095C6.91572 11.8846 6.57986 12.2205 6.40476 12.6432C6.22966 13.066 6.22966 13.5408 6.40476 13.9636C6.57986 14.3863 6.91572 14.7223 7.33846 14.8974C7.76119 15.0725 8.23617 15.0725 8.6589 14.8974C9.08163 14.7223 9.41748 14.3863 9.59258 13.9636C9.76768 13.5408 9.76768 13.066 9.59258 12.6432C9.41748 12.2205 9.08163 11.8846 8.6589 11.7095Z" stroke="#151824" stroke-width="1.5"/>
</svg>
