<svg width="14" height="17" viewBox="0 0 14 17" fill="none" xmlns="http://www.w3.org/2000/svg">
<mask id="path-1-inside-1" fill="white">
<path fill-rule="evenodd" clip-rule="evenodd" d="M4.04224 4.71675C4.04224 3.21642 5.25851 2.00016 6.75884 2.00016C8.25918 2.00016 9.47544 3.21642 9.47544 4.71675C9.47544 6.21709 8.25918 7.43335 6.75884 7.43335C5.25851 7.43335 4.04224 6.21709 4.04224 4.71675ZM6.75884 0.802734C4.59719 0.802734 2.84482 2.5551 2.84482 4.71675C2.84482 6.87841 4.59719 8.63077 6.75884 8.63077C8.9205 8.63077 10.6729 6.87841 10.6729 4.71675C10.6729 2.5551 8.9205 0.802734 6.75884 0.802734ZM1.19057 15.7021C1.64789 12.7244 4.00048 10.5266 6.7558 10.5266C9.51112 10.5266 11.8637 12.7244 12.321 15.7021C12.3712 16.029 12.6769 16.2532 13.0037 16.203C13.3305 16.1528 13.5548 15.8472 13.5046 15.5204C12.9711 12.0469 10.1876 9.32914 6.7558 9.32914C3.32399 9.32914 0.540474 12.0469 0.0070225 15.5204C-0.0431719 15.8472 0.181083 16.1528 0.507911 16.203C0.834738 16.2532 1.14037 16.029 1.19057 15.7021Z"/>
</mask>
<path d="M1.19057 15.7021L2.27782 15.8691L2.27782 15.8691L1.19057 15.7021ZM12.321 15.7021L11.2338 15.8691L11.2338 15.8691L12.321 15.7021ZM13.0037 16.203L12.8367 15.1158L12.8367 15.1158L13.0037 16.203ZM13.5046 15.5204L14.5918 15.3534L14.5918 15.3534L13.5046 15.5204ZM0.0070225 15.5204L-1.08023 15.3534L-1.08023 15.3534L0.0070225 15.5204ZM0.507911 16.203L0.674893 15.1158L0.67489 15.1158L0.507911 16.203ZM6.75884 0.900158C4.65099 0.900158 2.94224 2.60891 2.94224 4.71675H5.14224C5.14224 3.82393 5.86602 3.10016 6.75884 3.10016V0.900158ZM10.5754 4.71675C10.5754 2.60891 8.86669 0.900158 6.75884 0.900158V3.10016C7.65166 3.10016 8.37544 3.82393 8.37544 4.71675H10.5754ZM6.75884 8.53335C8.86669 8.53335 10.5754 6.8246 10.5754 4.71675H8.37544C8.37544 5.60958 7.65166 6.33335 6.75884 6.33335V8.53335ZM2.94224 4.71675C2.94224 6.8246 4.65099 8.53335 6.75884 8.53335V6.33335C5.86602 6.33335 5.14224 5.60958 5.14224 4.71675H2.94224ZM3.94482 4.71675C3.94482 3.16261 5.2047 1.90273 6.75884 1.90273V-0.297266C3.98967 -0.297266 1.74482 1.94759 1.74482 4.71675H3.94482ZM6.75884 7.53077C5.2047 7.53077 3.94482 6.2709 3.94482 4.71675H1.74482C1.74482 7.48592 3.98967 9.73077 6.75884 9.73077V7.53077ZM9.57286 4.71675C9.57286 6.2709 8.31298 7.53077 6.75884 7.53077V9.73077C9.52801 9.73077 11.7729 7.48592 11.7729 4.71675H9.57286ZM6.75884 1.90273C8.31298 1.90273 9.57286 3.16261 9.57286 4.71675H11.7729C11.7729 1.94759 9.52801 -0.297266 6.75884 -0.297266V1.90273ZM6.7558 9.42657C3.38084 9.42657 0.630877 12.1001 0.103317 15.5351L2.27782 15.8691C2.6649 13.3488 4.62012 11.6266 6.7558 11.6266V9.42657ZM13.4083 15.5351C12.8807 12.1001 10.1308 9.42657 6.7558 9.42657V11.6266C8.89148 11.6266 10.8467 13.3488 11.2338 15.8691L13.4083 15.5351ZM12.8367 15.1158C13.1104 15.0737 13.3663 15.2615 13.4083 15.5351L11.2338 15.8691C11.3762 16.7964 12.2434 17.4327 13.1707 17.2903L12.8367 15.1158ZM12.4173 15.6873C12.3753 15.4137 12.5631 15.1578 12.8367 15.1158L13.1707 17.2903C14.098 17.1479 14.7342 16.2807 14.5918 15.3534L12.4173 15.6873ZM6.7558 10.4291C9.56466 10.4291 11.9536 12.6677 12.4173 15.6873L14.5918 15.3534C13.9887 11.4262 10.8106 8.22914 6.7558 8.22914V10.4291ZM1.09427 15.6873C1.55804 12.6677 3.94694 10.4291 6.7558 10.4291V8.22914C2.70104 8.22914 -0.47709 11.4262 -1.08023 15.3534L1.09427 15.6873ZM0.67489 15.1158C0.948539 15.1578 1.1363 15.4137 1.09427 15.6873L-1.08023 15.3534C-1.22264 16.2807 -0.586372 17.1479 0.340932 17.2903L0.67489 15.1158ZM0.103317 15.5351C0.145344 15.2615 0.401247 15.0737 0.674893 15.1158L0.340929 17.2903C1.26823 17.4327 2.13541 16.7964 2.27782 15.8691L0.103317 15.5351Z" fill="#676E78" mask="url(#path-1-inside-1)"/>
</svg>
