<svg width="15" height="15" viewBox="0 0 15 15" fill="none" xmlns="http://www.w3.org/2000/svg">
<path fill-rule="evenodd" clip-rule="evenodd" d="M6.55945 11.2869C4.01275 11.2869 1.94824 9.22236 1.94824 6.67566C1.94824 4.12896 4.01275 2.06445 6.55945 2.06445C9.10615 2.06445 11.1707 4.12896 11.1707 6.67566C11.1707 9.22236 9.10615 11.2869 6.55945 11.2869ZM0.448242 6.67566C0.448242 10.0508 3.18432 12.7869 6.55945 12.7869C7.97665 12.7869 9.28117 12.3045 10.3178 11.4949L13.0129 14.19C13.3058 14.4829 13.7807 14.4829 14.0735 14.19C14.3664 13.8971 14.3664 13.4223 14.0735 13.1294L11.3785 10.4343C12.1882 9.39764 12.6707 8.093 12.6707 6.67566C12.6707 3.30054 9.93458 0.564453 6.55945 0.564453C3.18432 0.564453 0.448242 3.30054 0.448242 6.67566Z" fill="#515461"/>
</svg>
