<svg width="12" height="12" viewBox="0 0 12 12" fill="none" xmlns="http://www.w3.org/2000/svg">
<path fill-rule="evenodd" clip-rule="evenodd" d="M2.94416 1.7183C2.94416 2.45843 2.34417 3.05842 1.60404 3.05842C0.86391 3.05842 0.263916 2.45843 0.263916 1.7183C0.263916 0.978168 0.86391 0.378174 1.60404 0.378174C2.34417 0.378174 2.94416 0.978168 2.94416 1.7183ZM0.482358 3.94986C0.482358 3.91786 0.508295 3.89193 0.54029 3.89193H2.70626C2.73825 3.89193 2.76419 3.91786 2.76419 3.94986V11.0779C2.76419 11.1099 2.73825 11.1358 2.70626 11.1358H0.54029C0.508295 11.1358 0.482358 11.1099 0.482358 11.0779V3.94986ZM4.09 3.89193C4.058 3.89193 4.03207 3.91786 4.03207 3.94986V11.0779C4.03207 11.1099 4.058 11.1358 4.09 11.1358H6.25597C6.28796 11.1358 6.3139 11.1099 6.3139 11.0779V7.25188C6.39052 6.62029 6.72244 5.75684 7.6536 5.75684C8.70397 5.75684 8.77641 6.71666 8.77641 6.89775C8.77641 6.89971 8.77669 6.90158 8.77724 6.90339V11.0775C8.77724 11.1095 8.80317 11.1355 8.83517 11.1355H11.0011C11.0331 11.1355 11.0591 11.1095 11.0591 11.0775V6.52109C11.0591 6.51775 11.0588 6.51449 11.0582 6.5113V6.35446C11.0703 5.49123 10.5729 3.76476 8.48666 3.76476C7.1447 3.76476 6.49038 4.53627 6.3139 4.77191V3.94986C6.3139 3.91786 6.28796 3.89193 6.25597 3.89193H4.09Z" fill="black"/>
</svg>
