<svg width="12" height="11" viewBox="0 0 12 11" fill="none" xmlns="http://www.w3.org/2000/svg">
<path fill-rule="evenodd" clip-rule="evenodd" d="M2.94392 1.56302C2.94392 2.30315 2.34393 2.90315 1.6038 2.90315C0.863666 2.90315 0.263672 2.30315 0.263672 1.56302C0.263672 0.822894 0.863666 0.2229 1.6038 0.2229C2.34393 0.2229 2.94392 0.822894 2.94392 1.56302ZM0.482114 3.79458C0.482114 3.76259 0.508051 3.73665 0.540046 3.73665H2.70601C2.73801 3.73665 2.76395 3.76259 2.76395 3.79458V10.9226C2.76395 10.9546 2.73801 10.9806 2.70601 10.9806H0.540046C0.508051 10.9806 0.482114 10.9546 0.482114 10.9226V3.79458ZM4.08975 3.73665C4.05776 3.73665 4.03182 3.76259 4.03182 3.79458V10.9226C4.03182 10.9546 4.05776 10.9806 4.08975 10.9806H6.25572C6.28772 10.9806 6.31365 10.9546 6.31365 10.9226V7.09661C6.39027 6.46501 6.7222 5.60156 7.65336 5.60156C8.70373 5.60156 8.77617 6.56138 8.77617 6.74248C8.77617 6.74443 8.77645 6.74631 8.77699 6.74811V10.9223C8.77699 10.9543 8.80293 10.9802 8.83493 10.9802H11.0009C11.0329 10.9802 11.0588 10.9543 11.0588 10.9223V6.36582C11.0588 6.36248 11.0585 6.35921 11.058 6.35603V6.19919C11.0701 5.33595 10.5727 3.60949 8.48641 3.60949C7.14445 3.60949 6.49014 4.381 6.31365 4.61663V3.79458C6.31365 3.76259 6.28772 3.73665 6.25572 3.73665H4.08975Z" fill="#CECECE"/>
</svg>
