<svg width="12" height="10" viewBox="0 0 12 10" fill="none" xmlns="http://www.w3.org/2000/svg">
<path d="M3.7178 7.72183C2.76424 8.69987 1.13069 8.83613 0.433105 8.78201C3.90888 10.9979 7.18447 9.36462 8.84957 7.50215C10.5147 5.63967 10.5147 3.22324 10.5147 2.56421C11.0096 2.25857 11.4609 1.64093 11.6247 1.37031C11.4337 1.43081 10.9205 1.57662 10.3964 1.67595C10.8058 1.41807 11.1607 0.950073 11.3245 0.367446C10.9168 0.611955 10.1659 0.857742 9.84135 0.950073C9.65937 0.478883 8.32184 -0.138765 7.33916 0.300595C5.80287 0.987475 5.71652 2.46552 5.88334 3.16594C3.58314 3.02076 1.77671 1.46265 1.16102 0.701743C0.360314 2.09239 1.252 3.40153 1.79794 3.88227C1.29568 3.79822 0.927478 3.64986 0.80616 3.58619C0.711531 5.16786 2.04057 5.90711 2.71692 6.07903H1.61596C2.00721 7.0628 2.63503 7.61677 3.7178 7.72183Z" fill="white"/>
</svg>
