<svg width="12" height="10" viewBox="0 0 12 10" fill="none" xmlns="http://www.w3.org/2000/svg">
<path d="M3.7178 7.64419C2.76424 8.62223 1.13069 8.75849 0.433105 8.70437C3.90888 10.9202 7.18447 9.28698 8.84957 7.42451C10.5147 5.56204 10.5147 3.1456 10.5147 2.48657C11.0096 2.18093 11.4609 1.56329 11.6247 1.29268C11.4337 1.35317 10.9205 1.49898 10.3964 1.59831C10.8058 1.34043 11.1607 0.872436 11.3245 0.289809C10.9168 0.534318 10.1659 0.780106 9.84135 0.872436C9.65937 0.401246 8.32184 -0.216401 7.33916 0.222958C5.80287 0.909838 5.71652 2.38788 5.88334 3.0883C3.58314 2.94312 1.77671 1.38501 1.16102 0.624106C0.360314 2.01475 1.252 3.32389 1.79794 3.80464C1.29568 3.72059 0.927478 3.57222 0.80616 3.50855C0.711531 5.09022 2.04057 5.82948 2.71692 6.0014H1.61596C2.00721 6.98516 2.63503 7.53913 3.7178 7.64419Z" fill="#CECECE"/>
</svg>
