<svg width="12" height="10" viewBox="0 0 12 10" fill="none" xmlns="http://www.w3.org/2000/svg">
<path d="M3.7178 7.79947C2.76424 8.7775 1.13069 8.91377 0.433105 8.85964C3.90888 11.0755 7.18447 9.44225 8.84957 7.57978C10.5147 5.71731 10.5147 3.30087 10.5147 2.64184C11.0096 2.33621 11.4609 1.71857 11.6247 1.44795C11.4337 1.50844 10.9205 1.65426 10.3964 1.75359C10.8058 1.49571 11.1607 1.02771 11.3245 0.445082C10.9168 0.689591 10.1659 0.935379 9.84135 1.02771C9.65937 0.55652 8.32184 -0.061128 7.33916 0.378232C5.80287 1.06511 5.71652 2.54316 5.88334 3.24357C3.58314 3.0984 1.77671 1.54029 1.16102 0.77938C0.360314 2.17003 1.252 3.47917 1.79794 3.95991C1.29568 3.87586 0.927478 3.7275 0.80616 3.66382C0.711531 5.24549 2.04057 5.98475 2.71692 6.15667H1.61596C2.00721 7.14044 2.63503 7.6944 3.7178 7.79947Z" fill="black"/>
</svg>
