<svg width="17" height="12" viewBox="0 0 17 12" fill="none" xmlns="http://www.w3.org/2000/svg">
<path fill-rule="evenodd" clip-rule="evenodd" d="M15.2485 1.23214C15.4982 1.48179 15.6781 1.79249 15.7703 2.13329C16.3013 4.27075 16.1786 7.64655 15.7806 9.86649C15.6884 10.2073 15.5085 10.518 15.2589 10.7676C15.0092 11.0173 14.6985 11.1972 14.3577 11.2894C13.1101 11.6297 8.08866 11.6297 8.08866 11.6297C8.08866 11.6297 3.06723 11.6297 1.81961 11.2894C1.47881 11.1972 1.16811 11.0173 0.918459 10.7676C0.668809 10.518 0.488917 10.2073 0.396697 9.86649C-0.137409 7.73831 0.00900589 4.36045 0.386386 2.1436C0.478606 1.8028 0.658498 1.4921 0.908148 1.24245C1.1578 0.992801 1.46849 0.812909 1.8093 0.720689C3.05692 0.380428 8.07835 0.370117 8.07835 0.370117C8.07835 0.370117 13.0998 0.370117 14.3474 0.710378C14.6882 0.802598 14.9989 0.98249 15.2485 1.23214ZM10.6452 5.99996L6.47962 8.41272V3.5872L10.6452 5.99996Z" fill="white"/>
</svg>
