<svg width="20" height="16" viewBox="0 0 20 16" fill="none" xmlns="http://www.w3.org/2000/svg">
<path fill-rule="evenodd" clip-rule="evenodd" d="M0.736572 0.950061C0.736572 1.33666 1.04997 1.65006 1.43657 1.65006H4.23116L5.8897 8.58578C5.99731 9.03578 6.39958 9.3532 6.86228 9.3532H17.5287C18.0169 9.3532 18.4337 9.00069 18.5148 8.51927L19.4172 3.1605C19.5199 2.55047 19.0497 1.99444 18.4311 1.99444H5.75299L5.48165 0.859764C5.39616 0.502244 5.07656 0.250061 4.70896 0.250061H1.43657C1.04997 0.250061 0.736572 0.563462 0.736572 0.950061ZM7.1779 7.9532L6.08777 3.39444H17.9581L17.1904 7.9532H7.1779Z" fill="black"/>
<path fill-rule="evenodd" clip-rule="evenodd" d="M8.66701 15.6373C10.1214 15.6373 11.3005 14.4583 11.3005 13.0039C11.3005 11.5495 10.1214 10.3704 8.66701 10.3704C7.2126 10.3704 6.03357 11.5495 6.03357 13.0039C6.03357 14.4583 7.2126 15.6373 8.66701 15.6373ZM8.66701 14.2373C9.34822 14.2373 9.90046 13.6851 9.90046 13.0039C9.90046 12.3227 9.34822 11.7704 8.66701 11.7704C7.9858 11.7704 7.43357 12.3227 7.43357 13.0039C7.43357 13.6851 7.9858 14.2373 8.66701 14.2373Z" fill="black"/>
<path fill-rule="evenodd" clip-rule="evenodd" d="M15.667 15.6373C17.1214 15.6373 18.3005 14.4583 18.3005 13.0039C18.3005 11.5495 17.1214 10.3704 15.667 10.3704C14.2126 10.3704 13.0336 11.5495 13.0336 13.0039C13.0336 14.4583 14.2126 15.6373 15.667 15.6373ZM15.667 14.2373C16.3482 14.2373 16.9005 13.6851 16.9005 13.0039C16.9005 12.3227 16.3482 11.7704 15.667 11.7704C14.9858 11.7704 14.4336 12.3227 14.4336 13.0039C14.4336 13.6851 14.9858 14.2373 15.667 14.2373Z" fill="black"/>
</svg>
