<svg width="262" height="39" viewBox="0 0 262 39" fill="none" xmlns="http://www.w3.org/2000/svg">
<path d="M43.537 2.33813H47.8129C47.9475 2.33813 48.0485 2.40547 48.0485 2.57381V6.88764C48.0485 7.02232 47.9475 7.12332 47.8129 7.12332H43.537C43.4023 7.12332 43.3013 7.02232 43.3013 6.88764V2.57381C43.3013 2.43914 43.4023 2.33813 43.537 2.33813Z" fill="#2F3337"/>
<path d="M61.341 17.6089C60.3007 17.5011 59.3322 17.4008 58.5848 17.2514C57.1707 16.982 56.733 16.4433 56.733 15.6016C56.733 14.3222 57.9114 13.4469 60.1672 13.4469C62.4903 13.4469 64.5777 14.2886 66.1264 15.6016C66.2274 15.7026 66.3621 15.7026 66.4631 15.568L68.9882 12.6052C69.0892 12.5041 69.0893 12.3695 68.9546 12.2685C67.6752 11.1238 65.1164 9.50769 60.7395 9.50769C55.824 9.50769 52.5245 11.8308 52.5245 15.9383C52.5245 18.9347 54.1406 20.3488 56.2954 21.0895C57.723 21.5654 59.138 21.6853 60.5012 21.8007C61.3561 21.8731 62.1907 21.9438 62.9953 22.0996C64.5777 22.3689 65.0827 23.0086 65.0827 24.0186C65.0827 25.399 63.837 26.2407 61.3792 26.2407C58.5175 26.2407 56.329 25.3317 54.612 23.6819C54.511 23.5809 54.3426 23.5473 54.2416 23.6819L51.7838 26.6447C51.7778 26.6628 51.7708 26.6808 51.7638 26.6986C51.7315 26.7807 51.7009 26.8588 51.7838 26.9141C53.0296 28.1935 55.6893 30.1462 60.9752 30.1462C67.1028 30.1462 69.5269 27.1834 69.5269 23.6146C69.3923 19.8438 66.8335 18.4634 64.6114 18.0257C63.5537 17.8381 62.4095 17.7196 61.341 17.6089Z" fill="#2F3337"/>
<path d="M47.7315 9.93723H43.6597C43.525 9.93723 43.424 10.0382 43.424 10.1729L43.4127 29.4396C43.4127 29.5743 43.5137 29.6753 43.6484 29.6753H47.7201C47.8548 29.6753 47.9558 29.5743 47.9558 29.4396L47.9671 10.1729C47.9671 10.0382 47.8998 9.93723 47.7315 9.93723Z" fill="#2F3337"/>
<path fill-rule="evenodd" clip-rule="evenodd" d="M84.4456 9.44141C81.6511 9.44141 79.53 10.3841 78.0823 11.9329V10.1475C78.0823 10.0128 77.9813 9.91184 77.8466 9.91184H74.0085C73.8738 9.91184 73.7728 10.0128 73.7728 10.1475V37.7899C73.7728 37.9246 73.8738 38.0256 74.0085 38.0256H78.0486C78.1833 38.0256 78.2843 37.9246 78.2843 37.7899V27.7905C79.732 29.2046 81.7521 30.0126 84.4792 30.0126C90.3711 30.0126 94.2766 25.5011 94.2766 19.6765C94.2429 13.9866 90.3711 9.44141 84.4456 9.44141ZM83.7049 25.8378C79.8667 25.8378 77.914 23.1106 77.914 19.7438C77.914 16.4107 79.8667 13.7173 83.7049 13.7173C87.3074 13.7173 89.4621 16.4444 89.4621 19.7438C89.4621 23.1106 87.3074 25.8378 83.7049 25.8378Z" fill="#2F3337"/>
<path d="M107.937 9.50769C108.88 9.50769 109.789 9.7097 110.462 9.94537C110.597 9.97904 110.597 10.08 110.597 10.2821L109.486 14.4232C109.452 14.5579 109.351 14.5916 109.216 14.5579C108.509 14.3222 107.768 14.1876 107.162 14.1876C104.301 14.1876 102.584 16.5443 102.584 19.2714V29.4392C102.584 29.5739 102.483 29.6749 102.348 29.6749H98.3077C98.1731 29.6749 98.0721 29.5739 98.0721 29.4392V10.1783C98.0721 10.0437 98.1731 9.94268 98.3077 9.94268H102.146C102.281 9.94268 102.382 10.0437 102.382 10.1783V12.6052C103.829 10.2147 106.051 9.50769 107.937 9.50769Z" fill="#2F3337"/>
<path fill-rule="evenodd" clip-rule="evenodd" d="M163.09 9.95701H159.252C159.117 9.95701 159.016 10.058 159.016 10.1927V11.9481C157.535 10.3993 155.448 9.45663 152.653 9.45663C146.761 9.45663 142.856 14.1733 142.856 19.9306C142.856 25.7215 146.761 30.2667 152.653 30.2667C155.347 30.2667 157.4 29.425 158.848 28.0446V29.93C158.848 33.3978 156.188 34.7445 153.764 34.7445C151.475 34.7445 149.354 33.6335 148.209 31.4114C148.175 31.2767 147.973 31.2094 147.872 31.2767L144.102 32.9938C144.001 33.0275 143.967 33.1958 144.001 33.2631C145.044 35.7209 147.906 38.7847 153.764 38.7847C160.094 38.7847 163.36 34.8455 163.36 29.93V10.1927C163.326 10.058 163.225 9.95701 163.09 9.95701ZM153.394 26.0582C149.791 26.0582 147.637 23.3311 147.637 19.9642C147.637 16.6311 149.791 13.7325 153.394 13.7325C157.232 13.7325 159.185 16.6648 159.185 19.9642C159.185 23.3311 157.232 26.0582 153.394 26.0582Z" fill="#2F3337"/>
<path d="M113.491 9.98181H117.531C117.666 9.98181 117.767 10.0828 117.767 10.2175V29.4956C117.767 29.6303 117.666 29.7313 117.531 29.7313H113.491C113.356 29.7313 113.255 29.6303 113.255 29.4956V10.2175C113.255 10.0828 113.356 9.98181 113.491 9.98181Z" fill="#2F3337"/>
<path d="M132.485 9.57218C130.004 9.57218 128.02 10.3617 126.598 11.7434V10.203C126.598 10.0714 126.499 9.97269 126.367 9.97269H122.597C122.464 9.97269 122.365 10.0714 122.365 10.203V29.4956C122.365 29.6272 122.464 29.7259 122.597 29.7259H126.565C126.697 29.7259 126.797 29.6272 126.797 29.4956V18.6724C126.797 16.0736 128.186 13.7172 131.063 13.7172C133.477 13.7172 135.097 15.4485 135.097 18.3435V29.4956C135.097 29.6272 135.196 29.7259 135.329 29.7259H139.297C139.429 29.7259 139.529 29.6272 139.529 29.4956V17.2579C139.496 13.2444 137.71 9.57218 132.485 9.57218Z" fill="#2F3337"/>
<path d="M113.402 2.35099H117.662C117.797 2.35099 117.898 2.41833 117.898 2.58667V6.9005C117.898 7.03517 117.797 7.13617 117.662 7.13617H113.402C113.267 7.13617 113.166 7.03517 113.166 6.9005V2.58667C113.166 2.45199 113.267 2.35099 113.402 2.35099Z" fill="#2F3337"/>
<path d="M15.2655 11.1558H15.2983H18.7424H18.7752C19.3657 11.1558 19.7921 10.7294 19.7921 10.139V2.75877C19.7921 2.16836 19.3657 1.74194 18.7752 1.74194H18.7424H15.2983H15.2655C14.6751 1.74194 14.2487 2.16836 14.2487 2.75877V10.139C14.2159 10.7622 14.6423 11.1558 15.2655 11.1558Z" fill="#3CB46E"/>
<path d="M10.6404 15.0915L10.6732 15.0587L12.8052 12.369L12.838 12.3362C13.1988 11.877 13.1332 11.2866 12.674 10.893L6.90105 6.30086C6.44184 5.94005 5.85142 6.00565 5.45781 6.46486L5.42501 6.49766L3.29295 9.18734L3.26015 9.22014C2.89934 9.67935 2.96494 10.2698 3.42415 10.6634L9.19712 15.2555C9.68913 15.6163 10.2795 15.5507 10.6404 15.0915Z" fill="#3CB46E"/>
<path d="M10.8361 21.1276V21.0948L10.0816 17.7492V17.7164C9.95044 17.1259 9.45843 16.8307 8.86801 16.9619L1.68461 18.602C1.09419 18.7332 0.798984 19.2252 0.930188 19.8156V19.8484L1.68461 23.1941V23.2269C1.81581 23.8173 2.30783 24.1125 2.89824 23.9813L10.0816 22.3413C10.6721 22.2101 10.9673 21.7181 10.8361 21.1276Z" fill="#3CB46E"/>
<path d="M15.6912 24.7351L15.6584 24.7023L12.5751 23.2263L12.5423 23.1935C11.9847 22.9311 11.427 23.1279 11.1974 23.6855L8.01575 30.3113C7.75334 30.8689 7.95014 31.4265 8.50776 31.6561L8.54056 31.6889L11.6238 33.165L11.6567 33.1978C12.2143 33.4602 12.7719 33.2634 13.0015 32.7058L16.1832 26.08C16.4128 25.5552 16.216 24.9975 15.6912 24.7351Z" fill="#3CB46E"/>
<path d="M21.5291 23.2274L21.4963 23.2602L18.413 24.7363L18.3802 24.7691C17.8226 25.0315 17.6586 25.5891 17.8882 26.1467L21.1027 32.7725C21.3651 33.3301 21.9227 33.4941 22.4803 33.2645L22.5131 33.2317L25.5964 31.7557L25.6292 31.7229C26.1868 31.4605 26.3508 30.9028 26.1212 30.3452L22.9067 23.7194C22.6115 23.1618 22.0539 22.965 21.5291 23.2274Z" fill="#3CB46E"/>
<path d="M23.9552 17.6836V17.7164L23.2008 21.0621V21.0949C23.0696 21.6853 23.3648 22.1774 23.9552 22.3086L31.1386 23.9486C31.7291 24.0798 32.2211 23.7846 32.3523 23.1942V23.1614L33.1067 19.8157V19.7829C33.2379 19.1925 32.9427 18.7005 32.3523 18.5693L25.1689 16.9292C24.6113 16.798 24.1192 17.0932 23.9552 17.6836Z" fill="#3CB46E"/>
<path d="M21.1686 12.3362L21.2014 12.369L23.3334 15.0587L23.3662 15.0915C23.727 15.5507 24.3175 15.6163 24.8095 15.2555L30.5824 10.6634C31.0416 10.3026 31.1072 9.71215 30.7464 9.22014L30.7136 9.18734L28.5816 6.49766L28.5488 6.46486C28.188 6.00565 27.5975 5.94005 27.1055 6.30086L21.3326 10.893C20.8734 11.2866 20.8078 11.8442 21.1686 12.3362Z" fill="#3CB46E"/>
<path fill-rule="evenodd" clip-rule="evenodd" d="M174.902 0.678955V29.527H178.303V0.678955H174.902ZM222.514 29.5432H226.068V9.7865H222.514V12.8227C221.797 11.7756 220.792 10.9214 219.496 10.2601C218.174 9.57121 216.755 9.22678 215.239 9.22678C209.783 9.22678 205.267 13.297 205.267 19.6556C205.267 26.0141 209.402 30.1166 215.239 30.1166C216.755 30.1166 218.174 29.7859 219.496 29.1246C220.792 28.4357 221.797 27.5678 222.514 26.5207V29.5432ZM215.777 26.8514C211.635 26.8514 208.608 23.6637 208.608 19.6556C208.608 15.6474 211.635 12.492 215.777 12.492C219.918 12.492 222.66 15.6474 222.66 19.6556C222.66 23.6637 219.918 26.8514 215.777 26.8514ZM192.783 30.0238C189.737 30.0238 187.261 29.0439 185.354 27.0841C183.447 25.1243 182.494 22.6612 182.494 19.695C182.494 16.7553 183.46 14.3055 185.394 12.3457C187.327 10.3594 189.803 9.36624 192.822 9.36624C195.497 9.36624 197.735 10.2667 199.536 12.0676C201.364 13.842 202.277 16.2654 202.277 19.3375C202.277 19.7348 202.264 20.0791 202.238 20.3704H185.95C186.003 22.2243 186.665 23.7736 187.936 25.0183C189.234 26.2631 190.863 26.8855 192.822 26.8855C195.603 26.8855 197.669 25.7334 199.02 23.4293L201.721 25.2964C199.788 28.448 196.808 30.0238 192.783 30.0238ZM186.188 17.5896H198.781C198.517 16.0005 197.815 14.7425 196.676 13.8156C195.564 12.8621 194.239 12.3854 192.703 12.3854C191.141 12.3854 189.737 12.8621 188.492 13.8156C187.274 14.7425 186.506 16.0005 186.188 17.5896ZM231.08 29.5263V9.78818H234.475V13.6174C234.843 12.4068 235.554 11.433 236.607 10.6961C237.686 9.95924 238.817 9.5908 240.001 9.5908C240.58 9.5908 241.094 9.64343 241.541 9.7487V13.2621C241.067 13.0515 240.449 12.9463 239.686 12.9463C238.317 12.9463 237.107 13.5384 236.054 14.7227C235.001 15.907 234.475 17.5782 234.475 19.7362V29.5263H231.08ZM244.748 9.78844V29.5266H248.143V19.7365C248.143 17.4995 248.682 15.7362 249.761 14.4466C250.867 13.1571 252.235 12.5123 253.867 12.5123C255.288 12.5123 256.419 12.9992 257.262 13.9729C258.104 14.9203 258.41 16.2231 258.41 17.8811V29.5266H261.766V17.3679C261.766 14.9467 261.196 13.0123 259.828 11.5649C258.459 10.1174 256.656 9.39368 254.419 9.39368C251.577 9.39368 249.485 10.5385 248.143 12.8281V9.78844H244.748Z" fill="#3CB46E"/>
</svg>
