<svg width="259" height="38" viewBox="0 0 259 38" fill="none" xmlns="http://www.w3.org/2000/svg">
<path d="M43.5671 0.762451H47.846C47.9808 0.762451 48.0818 0.829834 48.0818 0.998293V5.31517C48.0818 5.44994 47.9808 5.55102 47.846 5.55102H43.5671C43.4323 5.55102 43.3313 5.44994 43.3313 5.31517V0.998293C43.3313 0.863526 43.4323 0.762451 43.5671 0.762451Z" fill="#2F3337"/>
<path d="M61.3836 16.044C60.3427 15.9362 59.3734 15.8358 58.6255 15.6862C57.2105 15.4167 56.7725 14.8776 56.7725 14.0353C56.7725 12.755 57.9517 11.879 60.2091 11.879C62.5338 11.879 64.6227 12.7213 66.1725 14.0353C66.2736 14.1364 66.4083 14.1364 66.5094 14.0016L69.0363 11.0367C69.1374 10.9357 69.1374 10.8009 69.0026 10.6998C67.7224 9.55428 65.1617 7.93708 60.7818 7.93708C55.8628 7.93708 52.561 10.2618 52.561 14.3722C52.561 17.3708 54.1782 18.7859 56.3345 19.5271C57.7632 20.0033 59.1791 20.1232 60.5433 20.2388C61.3988 20.3113 62.234 20.382 63.0392 20.5378C64.6227 20.8074 65.1281 21.4475 65.1281 22.4583C65.1281 23.8396 63.8815 24.6819 61.422 24.6819C58.5582 24.6819 56.3682 23.7722 54.6499 22.1213C54.5488 22.0203 54.3804 21.9866 54.2793 22.1213L51.8198 25.0862C51.8138 25.1043 51.8067 25.1223 51.7997 25.1401C51.7674 25.2223 51.7367 25.3004 51.8198 25.3558C53.0664 26.6361 55.728 28.5902 61.0177 28.5902C67.1496 28.5902 69.5754 25.6253 69.5754 22.054C69.4406 18.2805 66.88 16.8991 64.6564 16.4611C63.5979 16.2733 62.4529 16.1547 61.3836 16.044Z" fill="#2F3337"/>
<path d="M47.7645 8.36692H43.6899C43.5551 8.36692 43.4541 8.46799 43.4541 8.60276L43.4427 27.8831C43.4427 28.0179 43.5438 28.1189 43.6785 28.1189H47.7532C47.8879 28.1189 47.989 28.0179 47.989 27.8831L48.0004 8.60276C48.0004 8.46799 47.933 8.36692 47.7645 8.36692Z" fill="#2F3337"/>
<path fill-rule="evenodd" clip-rule="evenodd" d="M84.5046 7.87075C81.7082 7.87075 79.5856 8.81412 78.1368 10.3639V8.57735C78.1368 8.44258 78.0358 8.34151 77.901 8.34151H74.0601C73.9253 8.34151 73.8243 8.44258 73.8243 8.57735V36.2393C73.8243 36.3741 73.9253 36.4751 74.0601 36.4751H78.1031C78.2379 36.4751 78.339 36.3741 78.339 36.2393V26.2328C79.7877 27.6479 81.8092 28.4565 84.5383 28.4565C90.4344 28.4565 94.3426 23.9418 94.3426 18.1131C94.3089 12.4192 90.4344 7.87075 84.5046 7.87075ZM83.7634 24.2787C79.9225 24.2787 77.9684 21.5496 77.9684 18.1805C77.9684 14.845 79.9225 12.1496 83.7634 12.1496C87.3684 12.1496 89.5247 14.8787 89.5247 18.1805C89.5247 21.5496 87.3684 24.2787 83.7634 24.2787Z" fill="#2F3337"/>
<path d="M108.012 7.93708C108.956 7.93708 109.865 8.13922 110.539 8.37507C110.674 8.40876 110.674 8.50983 110.674 8.71198L109.562 12.8561C109.529 12.9909 109.427 13.0245 109.293 12.9909C108.585 12.755 107.844 12.6202 107.238 12.6202C104.374 12.6202 102.655 14.9787 102.655 17.7077V27.8827C102.655 28.0174 102.554 28.1185 102.42 28.1185H98.3766C98.2418 28.1185 98.1407 28.0174 98.1407 27.8827V8.6082C98.1407 8.47344 98.2418 8.37237 98.3766 8.37237H102.217C102.352 8.37237 102.453 8.47344 102.453 8.6082V11.0367C103.902 8.64461 106.126 7.93708 108.012 7.93708Z" fill="#2F3337"/>
<path fill-rule="evenodd" clip-rule="evenodd" d="M163.205 8.38671H159.364C159.229 8.38671 159.128 8.48778 159.128 8.62255V10.3792C157.646 8.82935 155.557 7.88598 152.76 7.88598C146.864 7.88598 142.956 12.606 142.956 18.3673C142.956 24.1623 146.864 28.7107 152.76 28.7107C155.456 28.7107 157.511 27.8684 158.96 26.4871V28.3738C158.96 31.8441 156.298 33.1918 153.872 33.1918C151.581 33.1918 149.459 32.0799 148.313 29.8562C148.279 29.7215 148.077 29.6541 147.976 29.7215L144.203 31.4398C144.102 31.4735 144.068 31.6419 144.102 31.7093C145.146 34.1688 148.01 37.2348 153.872 37.2348C160.206 37.2348 163.474 33.2928 163.474 28.3738V8.62255C163.441 8.48778 163.34 8.38671 163.205 8.38671ZM153.502 24.4992C149.897 24.4992 147.74 21.7702 147.74 18.401C147.74 15.0655 149.897 12.1648 153.502 12.1648C157.343 12.1648 159.297 15.0992 159.297 18.401C159.297 21.7702 157.343 24.4992 153.502 24.4992Z" fill="#2F3337"/>
<path d="M113.57 8.41153H117.613C117.748 8.41153 117.849 8.5126 117.849 8.64737V27.9391C117.849 28.0739 117.748 28.1749 117.613 28.1749H113.57C113.436 28.1749 113.335 28.0739 113.335 27.9391V8.64737C113.335 8.5126 113.436 8.41153 113.57 8.41153Z" fill="#2F3337"/>
<path d="M132.578 8.00161C130.096 8.00161 128.11 8.7917 126.687 10.1744V8.63284C126.687 8.50116 126.588 8.40241 126.455 8.40241H122.683C122.55 8.40241 122.451 8.50116 122.451 8.63284V27.9391C122.451 28.0708 122.55 28.1695 122.683 28.1695H126.654C126.786 28.1695 126.885 28.0708 126.885 27.9391V17.1083C126.885 14.5076 128.275 12.1496 131.155 12.1496C133.57 12.1496 135.192 13.8821 135.192 16.7791V27.9391C135.192 28.0708 135.291 28.1695 135.424 28.1695H139.395C139.527 28.1695 139.627 28.0708 139.627 27.9391V15.6927C139.594 11.6764 137.806 8.00161 132.578 8.00161Z" fill="#2F3337"/>
<path d="M113.481 0.775316H117.744C117.879 0.775316 117.98 0.842699 117.98 1.01116V5.32804C117.98 5.46281 117.879 5.56388 117.744 5.56388H113.481C113.347 5.56388 113.246 5.46281 113.246 5.32804V1.01116C113.246 0.87639 113.347 0.775316 113.481 0.775316Z" fill="#2F3337"/>
<path d="M15.2757 9.60046H15.3086H18.7551H18.7879C19.3787 9.60046 19.8055 9.17374 19.8055 8.58291V1.19748C19.8055 0.606647 19.3787 0.179932 18.7879 0.179932H18.7551H15.3086H15.2757C14.6849 0.179932 14.2582 0.606647 14.2582 1.19748V8.58291C14.2254 9.20656 14.6521 9.60046 15.2757 9.60046Z" fill="#B8195B"/>
<path d="M10.6472 13.5388L10.6801 13.506L12.8136 10.8144L12.8464 10.7816C13.2075 10.322 13.1419 9.7312 12.6823 9.33731L6.90528 4.74194C6.44575 4.38087 5.85491 4.44652 5.46102 4.90606L5.4282 4.93888L3.29463 7.63046L3.26181 7.66328C2.90074 8.12282 2.96639 8.71366 3.42593 9.10755L9.20297 13.7029C9.69533 14.064 10.2862 13.9983 10.6472 13.5388Z" fill="#B8195B"/>
<path d="M10.8431 19.5793V19.5465L10.0881 16.1985V16.1656C9.95684 15.5748 9.46448 15.2794 8.87364 15.4107L1.68516 17.0519C1.09433 17.1832 0.798913 17.6755 0.930209 18.2664V18.2992L1.68516 21.6473V21.6801C1.81646 22.2709 2.30882 22.5663 2.89966 22.435L10.0881 20.7938C10.679 20.6625 10.9744 20.1702 10.8431 19.5793Z" fill="#B8195B"/>
<path d="M15.7016 23.1892L15.6688 23.1564L12.5833 21.6793L12.5505 21.6464C11.9925 21.3839 11.4345 21.5808 11.2047 22.1388L8.02077 28.7693C7.75818 29.3273 7.95512 29.8853 8.51313 30.1151L8.54596 30.1479L11.6314 31.625L11.6643 31.6578C12.2223 31.9204 12.7803 31.7234 13.01 31.1654L16.194 24.535C16.4237 24.0098 16.2268 23.4518 15.7016 23.1892Z" fill="#B8195B"/>
<path d="M21.5437 21.6806L21.5109 21.7134L18.4254 23.1905L18.3926 23.2234C17.8346 23.486 17.6704 24.044 17.9002 24.602L21.117 31.2324C21.3796 31.7905 21.9376 31.9546 22.4956 31.7248L22.5284 31.692L25.6139 30.2149L25.6467 30.1821C26.2047 29.9195 26.3688 29.3615 26.1391 28.8035L22.9223 22.173C22.6269 21.615 22.0689 21.418 21.5437 21.6806Z" fill="#B8195B"/>
<path d="M23.9715 16.1329V16.1657L23.2166 19.5138V19.5466C23.0853 20.1375 23.3807 20.6298 23.9715 20.7611L31.16 22.4023C31.7508 22.5336 32.2432 22.2382 32.3745 21.6474V21.6145L33.1294 18.2665V18.2337C33.2607 17.6428 32.9653 17.1505 32.3745 17.0192L25.186 15.378C24.628 15.2467 24.1356 15.5421 23.9715 16.1329Z" fill="#B8195B"/>
<path d="M21.1829 10.7816L21.2157 10.8144L23.3493 13.506L23.3821 13.5388C23.7432 13.9983 24.334 14.064 24.8264 13.7029L30.6034 9.10755C31.0629 8.74648 31.1286 8.15565 30.7675 7.66328L30.7347 7.63046L28.6011 4.93888L28.5683 4.90606C28.2072 4.44652 27.6164 4.38087 27.124 4.74194L21.347 9.33731C20.8875 9.7312 20.8218 10.2892 21.1829 10.7816Z" fill="#B8195B"/>
<path d="M182.766 28.3283C177.869 28.3283 175.339 26.514 174.11 25.256L176.267 22.5137C178.044 24.2434 180.292 25.1856 183.168 25.1856C184.431 25.1856 185.449 24.9596 186.167 24.4913C186.911 24.0056 187.307 23.2717 187.307 22.3756C187.307 21.7619 187.159 21.1892 186.724 20.7368C186.306 20.3022 185.681 20.0397 184.857 19.8912C184.034 19.7236 183.185 19.6478 182.345 19.5727L182.332 19.5716C180.97 19.4499 179.615 19.3269 178.254 18.8487C177.23 18.4773 176.377 17.9521 175.778 17.183C175.185 16.4209 174.809 15.3763 174.809 13.8955C174.809 11.8834 175.568 10.3395 176.883 9.28512C178.213 8.21897 180.15 7.62476 182.531 7.62476C186.593 7.62476 189.006 9.13863 190.254 10.2619L188.017 13.0304C186.415 11.666 184.301 10.8027 181.962 10.8027C180.79 10.8027 179.837 11.0411 179.162 11.5084C178.468 11.9891 178.091 12.7006 178.091 13.5421C178.091 14.0744 178.226 14.577 178.625 14.9786C179.002 15.3592 179.564 15.5946 180.3 15.7427C181.065 15.9037 182.045 16.0108 183.065 16.1222L183.083 16.1242C184.148 16.2405 185.269 16.3631 186.301 16.556C187.355 16.7756 188.454 17.2246 189.3 18.0567C190.135 18.8772 190.758 20.1035 190.823 21.9601C190.821 23.7168 190.258 25.2849 189.011 26.4219C187.755 27.568 185.747 28.3283 182.766 28.3283Z" fill="#A40650"/>
<path d="M249.425 28.4815C246.378 28.4815 243.9 27.5009 241.991 25.5397C240.083 23.5785 239.129 21.1137 239.129 18.1454C239.129 15.2036 240.096 12.7521 242.031 10.7909C243.966 8.80318 246.444 7.80933 249.465 7.80933C252.142 7.80933 254.381 8.71042 256.184 10.5126C258.012 12.2883 258.927 14.7133 258.927 17.7876C258.927 18.1852 258.913 18.5297 258.887 18.8212H242.588C242.641 20.6764 243.303 22.2269 244.575 23.4725C245.874 24.7181 247.504 25.3409 249.465 25.3409C252.248 25.3409 254.315 24.188 255.667 21.8823L258.37 23.7508C256.435 26.9046 253.454 28.4815 249.425 28.4815ZM242.826 16.0385H255.428C255.163 14.4483 254.461 13.1894 253.321 12.2618C252.208 11.3077 250.883 10.8306 249.346 10.8306C247.782 10.8306 246.378 11.3077 245.132 12.2618C243.913 13.1894 243.144 14.4483 242.826 16.0385Z" fill="#A40650"/>
<path d="M202.652 28.3837C200.492 28.3837 198.74 27.6593 197.397 26.2104C196.053 24.7352 195.381 22.7858 195.381 20.3622V8.23096H198.78V19.8485C198.78 21.5081 199.175 22.8253 199.965 23.8C200.782 24.7747 201.875 25.262 203.245 25.262C204.825 25.262 206.129 24.6166 207.157 23.3258C208.211 22.0086 208.737 20.2436 208.737 18.0308V8.23096H212.136V27.9886H208.737V24.9459C207.447 27.2378 205.418 28.3837 202.652 28.3837Z" fill="#A40650"/>
<path d="M234.467 28.1856C232.649 28.1856 231.187 27.6719 230.081 26.6445C228.974 25.6171 228.421 24.1155 228.421 22.1398L228.438 11.271H224.25V8.23225L228.421 8.2304V2.73779H231.847V8.2304H237.924V11.271H231.847V21.9068C231.847 23.1449 232.083 23.8126 232.61 24.3131C233.136 24.8137 233.966 25.0639 235.099 25.0639C236.1 25.0639 236.904 24.9322 237.509 24.6688V27.7114C236.561 28.0275 235.547 28.1856 234.467 28.1856Z" fill="#A40650"/>
<path d="M217.835 27.9882V8.23058H221.233V27.9882H217.835Z" fill="#A40650"/>
<path d="M217.519 1.28882H221.56V5.33041H217.519V1.28882Z" fill="#A40650"/>
</svg>
