<svg width="12" height="12" viewBox="0 0 12 12" fill="none" xmlns="http://www.w3.org/2000/svg">
<path fill-rule="evenodd" clip-rule="evenodd" d="M2.94392 1.64066C2.94392 2.38079 2.34393 2.98078 1.6038 2.98078C0.863666 2.98078 0.263672 2.38079 0.263672 1.64066C0.263672 0.900531 0.863666 0.300537 1.6038 0.300537C2.34393 0.300537 2.94392 0.900531 2.94392 1.64066ZM0.482114 3.87222C0.482114 3.84023 0.508051 3.81429 0.540046 3.81429H2.70601C2.73801 3.81429 2.76395 3.84023 2.76395 3.87222V11.0003C2.76395 11.0323 2.73801 11.0582 2.70601 11.0582H0.540046C0.508051 11.0582 0.482114 11.0323 0.482114 11.0003V3.87222ZM4.08975 3.81429C4.05776 3.81429 4.03182 3.84023 4.03182 3.87222V11.0003C4.03182 11.0323 4.05776 11.0582 4.08975 11.0582H6.25572C6.28772 11.0582 6.31365 11.0323 6.31365 11.0003V7.17424C6.39027 6.54265 6.7222 5.6792 7.65336 5.6792C8.70373 5.6792 8.77617 6.63902 8.77617 6.82012C8.77617 6.82207 8.77645 6.82395 8.77699 6.82575V10.9999C8.77699 11.0319 8.80293 11.0578 8.83493 11.0578H11.0009C11.0329 11.0578 11.0588 11.0319 11.0588 10.9999V6.44345C11.0588 6.44012 11.0585 6.43685 11.058 6.43367V6.27682C11.0701 5.41359 10.5727 3.68712 8.48641 3.68712C7.14445 3.68712 6.49014 4.45864 6.31365 4.69427V3.87222C6.31365 3.84023 6.28772 3.81429 6.25572 3.81429H4.08975Z" fill="white"/>
</svg>
