<svg width="12" height="12" viewBox="0 0 12 12" fill="none" xmlns="http://www.w3.org/2000/svg">
<path fill-rule="evenodd" clip-rule="evenodd" d="M2.94416 1.64066C2.94416 2.38079 2.34417 2.98078 1.60404 2.98078C0.86391 2.98078 0.263916 2.38079 0.263916 1.64066C0.263916 0.900531 0.86391 0.300537 1.60404 0.300537C2.34417 0.300537 2.94416 0.900531 2.94416 1.64066ZM0.482358 3.87222C0.482358 3.84023 0.508295 3.81429 0.54029 3.81429H2.70626C2.73825 3.81429 2.76419 3.84023 2.76419 3.87222V11.0003C2.76419 11.0323 2.73825 11.0582 2.70626 11.0582H0.54029C0.508295 11.0582 0.482358 11.0323 0.482358 11.0003V3.87222ZM4.09 3.81429C4.058 3.81429 4.03207 3.84023 4.03207 3.87222V11.0003C4.03207 11.0323 4.058 11.0582 4.09 11.0582H6.25597C6.28796 11.0582 6.3139 11.0323 6.3139 11.0003V7.17424C6.39052 6.54265 6.72244 5.6792 7.6536 5.6792C8.70397 5.6792 8.77641 6.63902 8.77641 6.82012C8.77641 6.82207 8.77669 6.82395 8.77724 6.82575V10.9999C8.77724 11.0319 8.80317 11.0578 8.83517 11.0578H11.0011C11.0331 11.0578 11.0591 11.0319 11.0591 10.9999V6.44345C11.0591 6.44012 11.0588 6.43685 11.0582 6.43367V6.27682C11.0703 5.41359 10.5729 3.68712 8.48666 3.68712C7.1447 3.68712 6.49038 4.45864 6.3139 4.69427V3.87222C6.3139 3.84023 6.28796 3.81429 6.25597 3.81429H4.09Z" fill="#50515F"/>
</svg>
