<svg width="220" height="51" viewBox="0 0 220 51" fill="none" xmlns="http://www.w3.org/2000/svg">
<g clip-path="url(#clip0)">
<path d="M19.8985 13.0376H19.944H24.7137H24.7592C25.5769 13.0376 26.1674 12.447 26.1674 11.6294V1.40824C26.1674 0.590556 25.5769 0 24.7592 0H24.7137H19.944H19.8985C19.0808 0 18.4902 0.590556 18.4902 1.40824V11.6294C18.4448 12.4925 19.0354 13.0376 19.8985 13.0376Z" fill="#B8195B"/>
<path d="M13.4866 18.4892L13.532 18.4437L16.4847 14.7186L16.5302 14.6732C17.0298 14.0373 16.939 13.2196 16.3031 12.6745L8.30788 6.31466C7.6719 5.81497 6.85421 5.90582 6.30908 6.5418L6.26366 6.58722L3.3109 10.3123L3.26547 10.3577C2.76577 10.9936 2.85663 11.8114 3.49261 12.3565L11.4878 18.7163C12.1692 19.2159 12.9869 19.1251 13.4866 18.4892Z" fill="#8401FF"/>
<path d="M13.7616 26.8468V26.8014L12.7168 22.1678V22.1223C12.5351 21.3047 11.8537 20.8959 11.036 21.0775L1.08744 23.3489C0.26975 23.5306 -0.139089 24.212 0.0426193 25.0297V25.0751L1.08744 29.7087V29.7541C1.26914 30.5718 1.95056 30.9807 2.76824 30.799L12.7168 28.5276C13.5344 28.3459 13.9433 27.6645 13.7616 26.8468Z" fill="#0047CB"/>
<path d="M20.4898 31.8468L20.4443 31.8013L16.1741 29.7571L16.1287 29.7117C15.3564 29.3483 14.5842 29.6208 14.2662 30.3931L9.8598 39.5694C9.49633 40.3417 9.76889 41.114 10.5412 41.4319L10.5866 41.4773L14.8567 43.5216L14.9022 43.567C15.6744 43.9304 16.4467 43.6578 16.7646 42.8856L21.1711 33.7093C21.4891 32.9825 21.2165 32.2102 20.4898 31.8468Z" fill="#19B9EB"/>
<path d="M28.5668 29.7599L28.5214 29.8054L24.2512 31.8496L24.2058 31.895C23.4335 32.2584 23.2064 33.0307 23.5244 33.8029L27.9762 42.9792C28.3397 43.7515 29.112 43.9786 29.8842 43.6606L29.9297 43.6152L34.1998 41.571L34.2452 41.5256C35.0175 41.1622 35.2446 40.3899 34.9266 39.6176L30.4748 30.4413C30.0659 29.669 29.2936 29.3965 28.5668 29.7599Z" fill="#38DEC2"/>
<path d="M31.9283 22.0758V22.1213L30.8834 26.7548V26.8002C30.7017 27.6179 31.1106 28.2993 31.9283 28.4811L41.8769 30.7524C42.6945 30.9341 43.3759 30.5252 43.5576 29.7076V29.6622L44.6025 25.0286V24.9831C44.7841 24.1654 44.3753 23.4841 43.5576 23.3023L33.6091 21.031C32.8368 20.8493 32.1554 21.2581 31.9283 22.0758Z" fill="#FBC41B"/>
<path d="M28.0716 14.6732L28.117 14.7186L31.0698 18.4437L31.1153 18.4892C31.6149 19.1251 32.4326 19.2159 33.114 18.7163L41.1092 12.3565C41.7452 11.8568 41.836 11.0391 41.3363 10.3577L41.2909 10.3123L38.3382 6.58722L38.2928 6.5418C37.7931 5.90582 36.9754 5.81497 36.2939 6.31466L28.2988 12.6745C27.6628 13.2196 27.5719 13.9919 28.0716 14.6732Z" fill="#F9831B"/>
<path d="M149.79 0H155.559C155.786 0 155.923 0.0908524 155.877 0.317989V6.22352C155.877 6.40523 155.74 6.54151 155.559 6.54151H149.79C149.608 6.54151 149.472 6.40523 149.472 6.22352V0.317989C149.472 0.13628 149.608 0 149.79 0Z" fill="white"/>
<path d="M57.1569 0H62.9261C63.1078 0 63.2441 0.0908524 63.2441 0.317989V6.22352C63.2441 6.40523 63.1078 6.54151 62.9261 6.54151H57.1569C56.9752 6.54151 56.8389 6.40523 56.8389 6.22352V0.317989C56.8389 0.13628 56.9752 0 57.1569 0Z" fill="white"/>
<path d="M81.405 20.9704C80.0015 20.8251 78.6946 20.6896 77.6863 20.488C75.7784 20.1246 75.1877 19.3978 75.1877 18.2621C75.1877 16.5358 76.7777 15.3548 79.8214 15.3548C82.9558 15.3548 85.7724 16.4904 87.8616 18.2621C87.9979 18.3983 88.1802 18.3984 88.3166 18.2166L91.7229 14.219C91.8593 14.0828 91.8593 13.9011 91.6778 13.7648C89.9516 12.2203 86.4992 10.0398 80.5936 10.0398C73.9613 10.0398 69.5094 13.1742 69.5094 18.7163C69.5094 22.7593 71.6899 24.6673 74.5972 25.6667C76.5235 26.3088 78.4327 26.4705 80.272 26.6263C81.4255 26.724 82.5516 26.8194 83.6373 27.0295C85.7724 27.3929 86.4541 28.256 86.4541 29.6188C86.4541 31.4813 84.773 32.6171 81.4567 32.6171C77.5955 32.6171 74.6426 31.3905 72.3259 29.1646C72.1896 29.0283 71.9624 28.9829 71.8262 29.1646L68.51 33.1622C68.5018 33.1865 68.4923 33.2108 68.4829 33.2348C68.4394 33.3456 68.398 33.4509 68.51 33.5256C70.1908 35.2518 73.7795 37.8866 80.9116 37.8866C89.1797 37.8866 92.4497 33.889 92.4497 29.0737C92.2682 23.9859 88.8159 22.1234 85.8176 21.5328C84.3908 21.2796 82.8468 21.1198 81.405 20.9704Z" fill="white"/>
<path d="M62.7887 10.6879H57.3375C57.1558 10.6879 57.0195 10.8242 57.0195 11.0058V37.0681C57.0195 37.2499 57.1558 37.3861 57.3375 37.3861H62.7887C62.9705 37.3861 63.1067 37.2499 63.1067 37.0681V11.0058C63.1067 10.8242 63.0159 10.6879 62.7887 10.6879Z" fill="white"/>
<path fill-rule="evenodd" clip-rule="evenodd" d="M112.381 9.79773C108.611 9.79773 105.749 11.0696 103.796 13.1593V10.7504C103.796 10.5687 103.66 10.4324 103.477 10.4324H98.2988C98.1173 10.4324 97.981 10.5687 97.981 10.7504V48.0473C97.981 48.229 98.1173 48.3653 98.2988 48.3653H103.75C103.931 48.3653 104.068 48.229 104.068 48.0473V34.5555C106.021 36.4634 108.747 37.5537 112.427 37.5537C120.376 37.5537 125.646 31.4664 125.646 23.6075C125.601 15.9304 120.376 9.79773 112.381 9.79773ZM111.382 31.9207C106.203 31.9207 103.568 28.2411 103.568 23.6984C103.568 19.2011 106.203 15.5669 111.382 15.5669C116.242 15.5669 119.15 19.2465 119.15 23.6984C119.15 28.2411 116.242 31.9207 111.382 31.9207Z" fill="white"/>
<path d="M143.381 10.1985C144.653 10.1985 145.88 10.471 146.788 10.789C146.969 10.8344 146.969 10.9708 146.969 11.2433L145.471 16.8309C145.425 17.0125 145.288 17.0579 145.107 17.0125C144.153 16.6945 143.154 16.5128 142.336 16.5128C138.475 16.5128 136.158 19.6927 136.158 23.3723V37.0913C136.158 37.273 136.022 37.4093 135.839 37.4093H130.388C130.207 37.4093 130.07 37.273 130.07 37.0913V11.035C130.07 10.8533 130.207 10.717 130.388 10.717H135.568C135.749 10.717 135.885 10.8533 135.885 11.035V14.3777C137.838 11.1524 140.836 10.1985 143.381 10.1985Z" fill="white"/>
<path fill-rule="evenodd" clip-rule="evenodd" d="M218.753 10.6884H213.574C213.393 10.6884 213.257 10.8247 213.257 11.0064V13.1593C211.258 11.0696 208.441 9.79773 204.671 9.79773C196.721 9.79773 191.452 15.8849 191.452 23.653C191.452 31.4664 196.721 37.5991 204.671 37.5991C208.305 37.5991 211.076 36.4634 213.029 34.6009V37.1448C213.029 41.8238 209.44 43.6409 206.169 43.6409C203.081 43.6409 200.219 42.1418 198.674 39.1436C198.629 38.9619 198.356 38.8711 198.22 38.9619L193.132 41.2787C192.996 41.3241 192.95 41.5513 192.996 41.6421C194.404 44.9583 198.265 49.0921 206.169 49.0921C214.71 49.0921 219.117 43.7772 219.117 37.1448V11.0064C219.071 10.8247 218.934 10.6884 218.753 10.6884ZM205.67 31.9207C200.809 31.9207 197.902 28.2411 197.902 23.6984C197.902 19.2011 200.809 15.5669 205.67 15.5669C210.849 15.5669 213.483 19.2465 213.483 23.6984C213.483 28.2411 210.849 31.9207 205.67 31.9207Z" fill="white"/>
<path d="M149.926 10.6814H155.377C155.558 10.6814 155.695 10.8177 155.695 10.9994V37.0687C155.695 37.2503 155.558 37.3867 155.377 37.3867H149.926C149.743 37.3867 149.607 37.2503 149.607 37.0687V10.9994C149.607 10.8177 149.743 10.6814 149.926 10.6814Z" fill="white"/>
<path d="M177.561 10.6885C174.215 10.6885 171.537 11.7537 169.619 13.618V10.9992C169.619 10.8216 169.484 10.6885 169.306 10.6885H164.22C164.041 10.6885 163.907 10.8216 163.907 10.9992V37.0987C163.907 37.2762 164.041 37.4094 164.22 37.4094H169.574C169.753 37.4094 169.887 37.2762 169.887 37.0987V22.4954C169.887 18.9888 171.76 16.2812 175.642 16.2812C178.9 16.2812 181.086 18.1455 181.086 22.0515V37.0987C181.086 37.2762 181.22 37.4094 181.399 37.4094H186.753C186.931 37.4094 187.065 37.2762 187.065 37.0987V20.5867C187.02 15.1716 184.611 10.6885 177.561 10.6885Z" fill="white"/>
</g>
<defs>
<clipPath id="clip0">
<rect width="219.955" height="50.1799" fill="white"/>
</clipPath>
</defs>
</svg>
