<svg width="12" height="17" viewBox="0 0 12 17" fill="none" xmlns="http://www.w3.org/2000/svg">
<path d="M11.768 5.41319C11.5058 3.25976 10.3059 1.80979 8.43716 1.01302C7.00197 0.402888 5.52981 0.442368 4.06102 0.894587C3.01236 1.2176 2.12167 1.80979 1.41584 2.70705C0.689843 3.62944 0.296596 4.69897 0.189041 5.89412C0.0747636 7.179 0.363817 8.34902 1.06965 9.39702C1.2982 9.73798 1.58725 10.0143 1.94017 10.2081C2.17545 10.3409 2.23931 10.3086 2.30317 10.0359C2.36031 9.78105 2.40736 9.52264 2.48467 9.275C2.56197 9.02376 2.55525 8.80842 2.37375 8.60385C2.30317 8.5213 2.25611 8.41004 2.20906 8.30954C1.38223 6.60475 1.81917 4.38672 3.26444 3.19875C4.60215 2.09692 6.09784 1.939 7.65066 2.58861C8.71949 3.03724 9.41523 3.90579 9.68076 5.09735C10.0034 6.54733 9.82193 7.95782 9.12618 9.25705C8.66235 10.122 7.98341 10.6927 7.00869 10.7537C6.28606 10.8003 5.63065 10.3338 5.50292 9.55494C5.45587 9.27141 5.50629 8.99505 5.58023 8.72587C5.76509 8.04037 5.96003 7.35486 6.14153 6.66935C6.24236 6.2925 6.2995 5.91207 6.27598 5.51727C6.22892 4.69538 5.61048 4.19291 4.86096 4.38313C4.34335 4.51234 4.0106 4.8856 3.78877 5.3773C3.4056 6.23149 3.44594 7.10722 3.72827 7.98294C3.7686 8.11215 3.77869 8.227 3.74844 8.35261C3.47955 9.56212 3.23419 10.7788 2.93505 11.9811C2.646 13.1404 2.51492 14.3104 2.64936 15.502C2.66953 15.685 2.77036 16.008 2.77036 16.008L3.24427 16.1157C3.25772 16.0978 3.3283 15.9614 3.39552 15.8178C3.91985 14.716 4.34335 13.9156 4.55846 12.8497C4.65929 12.3436 4.80046 11.8483 4.92482 11.3495C4.93826 11.2956 4.93154 11.2203 4.98868 11.2023C5.0559 11.1844 5.06934 11.2633 5.09959 11.3064C5.2374 11.511 5.41217 11.6761 5.61048 11.8089C6.13817 12.1642 6.71292 12.297 7.33808 12.2611C8.40355 12.1965 9.32785 11.773 10.0807 10.9726C11.5294 9.43291 12.0268 7.51996 11.7714 5.4096L11.768 5.41319Z" fill="#50515F"/>
</svg>
