<svg width="17" height="12" viewBox="0 0 17 12" fill="none" xmlns="http://www.w3.org/2000/svg">
<path fill-rule="evenodd" clip-rule="evenodd" d="M15.2485 1.1545C15.4982 1.40415 15.6781 1.71485 15.7703 2.05565C16.3013 4.19311 16.1786 7.56891 15.7806 9.78885C15.6884 10.1297 15.5085 10.4404 15.2589 10.69C15.0092 10.9397 14.6985 11.1195 14.3577 11.2118C13.1101 11.552 8.08866 11.552 8.08866 11.552C8.08866 11.552 3.06723 11.552 1.81961 11.2118C1.47881 11.1195 1.16811 10.9397 0.918459 10.69C0.668809 10.4404 0.488917 10.1297 0.396697 9.78885C-0.137409 7.66068 0.00900589 4.28281 0.386386 2.06596C0.478606 1.72516 0.658498 1.41446 0.908148 1.16481C1.1578 0.915164 1.46849 0.735272 1.8093 0.643052C3.05692 0.302791 8.07835 0.29248 8.07835 0.29248C8.07835 0.29248 13.0998 0.29248 14.3474 0.632741C14.6882 0.724961 14.9989 0.904853 15.2485 1.1545ZM10.6452 5.92233L6.47962 8.33509V3.50957L10.6452 5.92233Z" fill="#CECECE"/>
</svg>
