<svg width="17" height="12" viewBox="0 0 17 12" fill="none" xmlns="http://www.w3.org/2000/svg">
<path fill-rule="evenodd" clip-rule="evenodd" d="M15.2488 1.30978C15.4984 1.55943 15.6783 1.87012 15.7706 2.21092C16.3016 4.34838 16.1789 7.72418 15.7809 9.94413C15.6886 10.2849 15.5087 10.5956 15.2591 10.8453C15.0094 11.0949 14.6988 11.2748 14.358 11.367C13.1103 11.7073 8.0889 11.7073 8.0889 11.7073C8.0889 11.7073 3.06747 11.7073 1.81985 11.367C1.47905 11.2748 1.16835 11.0949 0.918703 10.8453C0.669053 10.5956 0.489161 10.2849 0.396941 9.94413C-0.137165 7.81595 0.00925003 4.43809 0.38663 2.22124C0.47885 1.88043 0.658742 1.56974 0.908392 1.32009C1.15804 1.07044 1.46874 0.890545 1.80954 0.798326C3.05716 0.458065 8.07859 0.447754 8.07859 0.447754C8.07859 0.447754 13.1 0.447754 14.3476 0.788015C14.6884 0.880235 14.9991 1.06013 15.2488 1.30978ZM10.6455 6.0776L6.47986 8.49036V3.66484L10.6455 6.0776Z" fill="black"/>
</svg>
