<svg width="17" height="12" viewBox="0 0 17 12" fill="none" xmlns="http://www.w3.org/2000/svg">
<path fill-rule="evenodd" clip-rule="evenodd" d="M15.2488 1.23214C15.4984 1.48179 15.6783 1.79249 15.7706 2.13329C16.3016 4.27075 16.1789 7.64655 15.7809 9.86649C15.6886 10.2073 15.5087 10.518 15.2591 10.7676C15.0094 11.0173 14.6988 11.1972 14.358 11.2894C13.1103 11.6297 8.0889 11.6297 8.0889 11.6297C8.0889 11.6297 3.06747 11.6297 1.81985 11.2894C1.47905 11.1972 1.16835 11.0173 0.918703 10.7676C0.669053 10.518 0.489161 10.2073 0.396941 9.86649C-0.137165 7.73831 0.00925003 4.36045 0.38663 2.1436C0.47885 1.8028 0.658742 1.4921 0.908392 1.24245C1.15804 0.992801 1.46874 0.812909 1.80954 0.720689C3.05716 0.380428 8.07859 0.370117 8.07859 0.370117C8.07859 0.370117 13.1 0.370117 14.3476 0.710378C14.6884 0.802598 14.9991 0.98249 15.2488 1.23214ZM10.6455 5.99996L6.47986 8.41272V3.5872L10.6455 5.99996Z" fill="#50515F"/>
</svg>
